<svg width="22" height="22" viewBox="0 0 22 22" fill="none" xmlns="http://www.w3.org/2000/svg">
<path fill-rule="evenodd" clip-rule="evenodd" d="M0.261685 0.731374C0.390508 0.343217 0.808235 0.133442 1.19471 0.262828L1.48778 0.360947C1.50108 0.365398 1.51433 0.369835 1.52755 0.374258C2.22344 0.607214 2.80459 0.801755 3.26015 1.01498C3.74182 1.24041 4.15119 1.51624 4.46022 1.94912C4.76813 2.38041 4.89841 2.85598 4.9588 3.38543C5.01608 3.88755 5.01607 4.5035 5.01605 5.24243L5.01605 8.18304C5.01605 9.77422 5.01762 10.8932 5.13093 11.7395C5.24139 12.5645 5.44573 13.0188 5.77169 13.3462C6.09769 13.6736 6.54984 13.8788 7.37114 13.9897C8.21372 14.1035 9.32779 14.1051 10.9124 14.1051H19.7572C20.1646 14.1051 20.4949 14.4368 20.4949 14.846C20.4949 15.2551 20.1646 15.5868 19.7572 15.5868H10.8577C9.34039 15.5868 8.12687 15.5868 7.17452 15.4582C6.18948 15.3251 5.37424 15.0424 4.72855 14.3939C4.08283 13.7453 3.80132 12.9263 3.66886 11.937C3.54078 10.9804 3.5408 9.76156 3.54082 8.2379L3.54082 5.2783C3.54082 4.48962 3.53954 3.96068 3.49316 3.55408C3.44897 3.16671 3.37043 2.96532 3.26133 2.8125C3.15337 2.66127 2.98936 2.52289 2.63703 2.35799C2.26725 2.18491 1.76723 2.01632 1.02128 1.76659L0.728195 1.66847C0.341726 1.53908 0.132862 1.11953 0.261685 0.731374Z" fill="white"/>
<path fill-rule="evenodd" clip-rule="evenodd" d="M0.0495828 0.660325C0.217442 0.154549 0.76175 -0.118793 1.26533 0.0497992L1.55841 0.147919L1.59816 0.161228L1.60942 0.164996C2.29618 0.394893 2.88731 0.592776 3.3545 0.811436C3.85574 1.04603 4.3023 1.34268 4.64181 1.81824C4.97985 2.29174 5.11796 2.80886 5.18081 3.35982C5.23954 3.8747 5.23952 4.5012 5.23951 5.23046L5.23951 8.18298C5.23951 9.78062 5.24155 10.8816 5.35239 11.7095C5.4595 12.5095 5.6521 12.9086 5.92968 13.1874C6.20731 13.4662 6.60451 13.6596 7.40087 13.7672C8.22507 13.8785 9.3213 13.8806 10.9123 13.8806H19.7572C20.288 13.8806 20.7183 14.3128 20.7183 14.8459C20.7183 15.379 20.288 15.8112 19.7572 15.8112H10.8418C9.33757 15.8112 8.11187 15.8113 7.14467 15.6806C6.1349 15.5442 5.2646 15.2497 4.57044 14.5526C3.87624 13.8553 3.58306 12.981 3.44728 11.9668C3.31721 10.9953 3.31722 9.76426 3.31724 8.25379L3.31724 5.27824C3.31724 4.48429 3.31562 3.97044 3.27104 3.57957C3.22931 3.21378 3.15862 3.05391 3.07963 2.94325C3.00211 2.83467 2.87525 2.71712 2.54256 2.56141C2.18712 2.39505 1.70155 2.23093 0.950535 1.9795L0.657456 1.88138C0.153877 1.71278 -0.118277 1.1661 0.0495828 0.660325ZM1.205 0.502867L1.04243 0.992717C1.00339 1.11034 1.06668 1.23747 1.18379 1.27668C1.3009 1.31588 1.42748 1.25232 1.46652 1.1347L1.62908 0.644878C2.25069 0.853391 2.76107 1.02902 3.16568 1.2184C3.62778 1.43467 3.99996 1.68968 4.27852 2.07987C4.55629 2.46896 4.67874 2.90297 4.73668 3.41093C4.79218 3.89747 4.79249 4.49885 4.79248 5.24237L4.79248 8.18298C4.79248 9.76771 4.79357 10.9046 4.90935 11.7694C5.02316 12.6194 5.23924 13.1289 5.61359 13.5049C5.98796 13.8809 6.49506 14.0979 7.34129 14.2122C8.20226 14.3285 9.33416 14.3295 10.9123 14.3295H19.7572C20.0411 14.3295 20.2713 14.5607 20.2713 14.8459C20.2713 15.1311 20.0411 15.3622 19.7572 15.3622H10.8577C9.33444 15.3623 8.13834 15.3618 7.20425 15.2356C6.24394 15.1059 5.48375 14.8349 4.88654 14.2351C4.2893 13.6352 4.01946 12.8715 3.89032 11.907C3.7647 10.9687 3.76425 9.76741 3.76427 8.23785L3.76427 5.27824C3.76427 4.49484 3.76333 3.95081 3.71516 3.52847C3.66851 3.11952 3.58212 2.87661 3.44292 2.68163C3.30451 2.48776 3.10336 2.32854 2.73138 2.15445C2.34726 1.97466 1.83279 1.8016 1.0919 1.55356L0.798818 1.45544C0.529457 1.36526 0.383883 1.07284 0.47367 0.802304C0.563457 0.531767 0.854604 0.385559 1.12397 0.475738L1.205 0.502867Z" fill="white"/>
<path fill-rule="evenodd" clip-rule="evenodd" d="M7.04121 18.4446C6.81881 18.4446 6.60551 18.5334 6.44824 18.6913C6.29098 18.8493 6.20263 19.0635 6.20263 19.2869C6.20263 19.4535 6.25181 19.6163 6.34395 19.7548C6.4361 19.8933 6.56707 20.0013 6.7203 20.065C6.87353 20.1288 7.04214 20.1455 7.20482 20.113C7.36749 20.0805 7.51691 20.0002 7.63419 19.8825C7.75147 19.7647 7.83133 19.6146 7.86369 19.4512C7.89605 19.2878 7.87944 19.1185 7.81597 18.9646C7.7525 18.8107 7.64502 18.6791 7.50711 18.5866C7.3692 18.494 7.20707 18.4446 7.04121 18.4446ZM5.28919 17.5272C5.75386 17.0605 6.38408 16.7983 7.04121 16.7983C7.53127 16.7983 8.01031 16.9443 8.41777 17.2177C8.82523 17.4912 9.14281 17.8798 9.33035 18.3346C9.51788 18.7893 9.56695 19.2897 9.47134 19.7724C9.37574 20.2551 9.13976 20.6985 8.79324 21.0466C8.44672 21.3946 8.00523 21.6316 7.5246 21.7276C7.04397 21.8236 6.54577 21.7744 6.09303 21.586C5.64028 21.3977 5.25331 21.0787 4.98105 20.6695C4.70879 20.2602 4.56348 19.7791 4.56348 19.2869C4.56348 18.6269 4.82452 17.9939 5.28919 17.5272Z" fill="white"/>
<path fill-rule="evenodd" clip-rule="evenodd" d="M5.132 17.3688C5.63858 16.8601 6.32566 16.5742 7.04207 16.5742C7.57633 16.5742 8.09859 16.7333 8.54281 17.0314C8.98703 17.3296 9.33325 17.7533 9.5377 18.249C9.74215 18.7448 9.79565 19.2903 9.69142 19.8165C9.58719 20.3428 9.32992 20.8262 8.95215 21.2057C8.57437 21.5851 8.09305 21.8435 7.56906 21.9482C7.04507 22.0529 6.50194 21.9991 6.00835 21.7938C5.51476 21.5884 5.09288 21.2407 4.79606 20.7945C4.49925 20.3484 4.34082 19.8238 4.34082 19.2873C4.34082 18.5677 4.62542 17.8776 5.132 17.3688ZM7.04207 17.0232C6.44422 17.0232 5.87084 17.2617 5.44809 17.6863C5.02535 18.1109 4.78785 18.6868 4.78785 19.2873C4.78785 19.735 4.92006 20.1728 5.16775 20.5451C5.41545 20.9174 5.76751 21.2076 6.17942 21.379C6.59132 21.5503 7.04457 21.5952 7.48185 21.5078C7.91913 21.4205 8.32079 21.2048 8.63605 20.8882C8.95131 20.5716 9.166 20.1681 9.25298 19.729C9.33996 19.2898 9.29532 18.8345 9.1247 18.4208C8.95409 18.0071 8.66516 17.6535 8.29445 17.4048C7.92375 17.156 7.48792 17.0232 7.04207 17.0232ZM7.04207 18.6695C6.87894 18.6695 6.7225 18.7346 6.60715 18.8504C6.4918 18.9663 6.427 19.1234 6.427 19.2873C6.427 19.4094 6.46307 19.5289 6.53066 19.6305C6.59824 19.7321 6.6943 19.8112 6.80669 19.858C6.91908 19.9048 7.04275 19.917 7.16207 19.8931C7.28138 19.8693 7.39098 19.8105 7.477 19.7241C7.56302 19.6377 7.6216 19.5276 7.64533 19.4078C7.66906 19.2879 7.65688 19.1637 7.61033 19.0509C7.56377 18.938 7.48494 18.8415 7.38379 18.7736C7.28264 18.7057 7.16372 18.6695 7.04207 18.6695ZM6.29105 18.533C6.49024 18.3329 6.76039 18.2205 7.04207 18.2205C7.25214 18.2205 7.45748 18.2831 7.63215 18.4003C7.80681 18.5175 7.94294 18.6841 8.02333 18.879C8.10372 19.074 8.12475 19.2884 8.08377 19.4954C8.04279 19.7023 7.94163 19.8924 7.79309 20.0416C7.64455 20.1907 7.45531 20.2923 7.24928 20.3335C7.04325 20.3747 6.8297 20.3535 6.63562 20.2728C6.44155 20.1921 6.27567 20.0553 6.15897 19.8799C6.04226 19.7045 5.97997 19.4982 5.97997 19.2873C5.97997 19.0043 6.09187 18.733 6.29105 18.533Z" fill="white"/>
<path fill-rule="evenodd" clip-rule="evenodd" d="M16.9924 18.4446C16.77 18.4446 16.5567 18.5334 16.3994 18.6913C16.2421 18.8493 16.1538 19.0635 16.1538 19.2869C16.1538 19.4535 16.203 19.6163 16.2951 19.7548C16.3873 19.8933 16.5182 20.0013 16.6715 20.065C16.8247 20.1288 16.9933 20.1455 17.156 20.113C17.3187 20.0805 17.4681 20.0002 17.5854 19.8825C17.7026 19.7647 17.7825 19.6146 17.8149 19.4512C17.8472 19.2878 17.8306 19.1185 17.7671 18.9646C17.7037 18.8107 17.5962 18.6791 17.4583 18.5866C17.3204 18.494 17.1582 18.4446 16.9924 18.4446ZM15.2404 17.5272C15.705 17.0605 16.3352 16.7983 16.9924 16.7983C17.4824 16.7983 17.9615 16.9443 18.3689 17.2177C18.7764 17.4912 19.094 17.8798 19.2815 18.3346C19.4691 18.7893 19.5181 19.2897 19.4225 19.7724C19.3269 20.2551 19.0909 20.6985 18.7444 21.0466C18.3979 21.3946 17.9564 21.6316 17.4758 21.7276C16.9951 21.8236 16.4969 21.7744 16.0442 21.586C15.5914 21.3977 15.2045 21.0787 14.9322 20.6695C14.66 20.2602 14.5146 19.7791 14.5146 19.2869C14.5146 18.6269 14.7757 17.9939 15.2404 17.5272Z" fill="white"/>
<path fill-rule="evenodd" clip-rule="evenodd" d="M15.0822 17.3688C15.5888 16.8601 16.2759 16.5742 16.9923 16.5742C17.5265 16.5742 18.0488 16.7333 18.493 17.0314C18.9372 17.3296 19.2834 17.7533 19.4879 18.249C19.6924 18.7448 19.7458 19.2903 19.6416 19.8165C19.5374 20.3428 19.2801 20.8262 18.9023 21.2057C18.5246 21.5851 18.0432 21.8435 17.5193 21.9482C16.9953 22.0529 16.4521 21.9991 15.9585 21.7938C15.465 21.5884 15.0431 21.2407 14.7463 20.7945C14.4494 20.3484 14.291 19.8238 14.291 19.2873C14.291 18.5677 14.5756 17.8776 15.0822 17.3688ZM16.9923 17.0232C16.3944 17.0232 15.821 17.2617 15.3983 17.6863C14.9755 18.1109 14.738 18.6868 14.738 19.2873C14.738 19.735 14.8703 20.1728 15.1179 20.5451C15.3656 20.9174 15.7177 21.2076 16.1296 21.379C16.5415 21.5503 16.9948 21.5952 17.432 21.5078C17.8693 21.4205 18.271 21.2048 18.5862 20.8882C18.9015 20.5716 19.1162 20.1681 19.2032 19.729C19.2902 19.2898 19.2455 18.8345 19.0749 18.4208C18.9043 18.0071 18.6154 17.6535 18.2446 17.4048C17.8739 17.156 17.4381 17.0232 16.9923 17.0232ZM16.9923 18.6695C16.8291 18.6695 16.6727 18.7346 16.5573 18.8504C16.442 18.9663 16.3772 19.1234 16.3772 19.2873C16.3772 19.4094 16.4133 19.5289 16.4809 19.6305C16.5484 19.7321 16.6445 19.8112 16.7569 19.858C16.8693 19.9048 16.9929 19.917 17.1123 19.8931C17.2316 19.8693 17.3412 19.8105 17.4272 19.7241C17.5132 19.6377 17.5718 19.5276 17.5955 19.4078C17.6193 19.2879 17.6071 19.1637 17.5605 19.0509C17.514 18.938 17.4351 18.8415 17.334 18.7736C17.2328 18.7057 17.1139 18.6695 16.9923 18.6695ZM16.2412 18.533C16.4404 18.3329 16.7106 18.2205 16.9923 18.2205C17.2023 18.2205 17.4077 18.2831 17.5823 18.4003C17.757 18.5175 17.8931 18.6841 17.9735 18.879C18.0539 19.074 18.0749 19.2884 18.034 19.4954C17.993 19.7023 17.8918 19.8924 17.7433 20.0416C17.5947 20.1907 17.4055 20.2923 17.1995 20.3335C16.9934 20.3747 16.7799 20.3535 16.5858 20.2728C16.3917 20.1921 16.2259 20.0553 16.1092 19.8799C15.9925 19.7045 15.9302 19.4982 15.9302 19.2873C15.9302 19.0043 16.0421 18.733 16.2412 18.533Z" fill="white"/>
<path fill-rule="evenodd" clip-rule="evenodd" d="M19.4477 5.12392C18.8849 5.04026 18.0981 5.03832 16.9378 5.03832H4.27832V3.55664L16.9983 3.55664C18.0827 3.55661 18.9799 3.55658 19.6637 3.65822C20.3736 3.76376 21.0374 4.00338 21.4535 4.63943C21.8686 5.27398 21.8269 5.9795 21.6438 6.67668C21.4667 7.35098 21.111 8.18335 20.6804 9.19104L20.6626 9.23269L20.1886 10.3427L20.1756 10.3732C19.9785 10.8353 19.8081 11.235 19.6315 11.5501C19.4424 11.8878 19.2154 12.1873 18.8752 12.413C18.5346 12.6389 18.1706 12.7305 17.787 12.7721C17.43 12.8109 16.9983 12.8109 16.4995 12.8108L4.27832 12.8108V11.3292H16.4624C17.0088 11.3292 17.3602 11.3282 17.6286 11.299C17.8791 11.2719 17.9879 11.2259 18.0623 11.1765C18.1372 11.1269 18.2223 11.0442 18.3459 10.8236C18.4782 10.5873 18.6176 10.2634 18.8326 9.75926L19.3067 8.64874C19.7644 7.57787 20.0724 6.85086 20.2174 6.29876C20.3588 5.76022 20.2952 5.56719 20.2205 5.453C20.1468 5.34032 19.9969 5.20557 19.4477 5.12392Z" fill="white"/>
<path fill-rule="evenodd" clip-rule="evenodd" d="M17.0155 3.33203C18.0857 3.332 18.9962 3.33196 19.6963 3.43603C20.4302 3.54512 21.1721 3.80046 21.6402 4.51605C22.107 5.22966 22.0491 6.01303 21.8598 6.73382C21.6785 7.4242 21.3175 8.26885 20.8925 9.26342L20.8679 9.32104L20.394 10.431L20.3769 10.471C20.1831 10.9255 20.0087 11.3344 19.8262 11.6601C19.6271 12.0155 19.3787 12.3479 18.9983 12.6002C18.6173 12.8529 18.2146 12.9514 17.8109 12.9952C17.4419 13.0353 17.0002 13.0352 16.5096 13.0352L4.05469 13.0352V11.1046H16.4623C17.0137 11.1046 17.3509 11.1032 17.6044 11.0757C17.8348 11.0507 17.905 11.0117 17.939 10.9891C17.9737 10.9661 18.0373 10.9162 18.1509 10.7134C18.276 10.4902 18.41 10.1795 18.627 9.67074L19.1012 8.56014C19.5618 7.48238 19.8614 6.77352 20.0011 6.24138C20.1351 5.73122 20.0581 5.61357 20.0341 5.57683L20.033 5.57516C20.01 5.53992 19.9336 5.42299 19.4148 5.34587C18.8724 5.26523 18.1056 5.26269 16.9377 5.26269H4.05469V3.33203L17.0155 3.33203ZM19.6308 3.88017C18.9672 3.78151 18.0892 3.78098 16.9982 3.78101L4.50172 3.78101V4.81371H16.9377C18.0904 4.81371 18.8972 4.81506 19.4803 4.90173C20.0551 4.98718 20.282 5.13825 20.4072 5.32962C20.5331 5.52205 20.5814 5.79221 20.4334 6.3559C20.2831 6.92796 19.9667 7.67316 19.512 8.73709C19.512 8.73711 19.512 8.73707 19.512 8.73709L19.0379 9.84754C18.8249 10.3471 18.6802 10.6843 18.5405 10.9335C18.407 11.1719 18.3004 11.2874 18.1854 11.3637C18.0706 11.4398 17.9232 11.4927 17.6524 11.5221C17.3693 11.5528 17.0036 11.5535 16.4623 11.5535H4.50172V12.5862L16.4993 12.5862C17.0022 12.5863 17.4205 12.586 17.7629 12.5488C18.1263 12.5094 18.4516 12.4247 18.7519 12.2255C19.0519 12.0265 19.2574 11.7599 19.4366 11.4399C19.606 11.1377 19.7713 10.7506 19.9701 10.2847L19.9831 10.2542L20.457 9.14409L20.4748 9.10238C20.9081 8.08853 21.2557 7.27381 21.4276 6.6193C21.6045 5.94573 21.6299 5.31806 21.2666 4.76258C20.9025 4.20605 20.3169 3.98215 19.6308 3.88017Z" fill="white"/>
</svg>
