<svg width="24" height="23" viewBox="0 0 24 23" fill="none" xmlns="http://www.w3.org/2000/svg">
<path d="M11.668 0.491211C11.8781 0.464884 12.0907 0.464863 12.3008 0.491211L12.8398 0.519531C15.5274 0.725302 18.0551 1.90343 19.9434 3.84277C21.9575 5.91148 23.0849 8.68501 23.0859 11.5713C23.0875 13.7518 22.4459 15.885 21.2412 17.7031C20.0366 19.521 18.3227 20.944 16.3135 21.7939C14.304 22.6439 12.0881 22.8828 9.94336 22.4814C7.79859 22.08 5.81942 21.0561 4.25391 19.5371C2.68836 18.018 1.60522 16.0711 1.14062 13.9404C0.67611 11.8099 0.850487 9.58978 1.6416 7.55762C2.43273 5.52546 3.8057 3.77139 5.58887 2.51465C7.37214 1.25791 9.48675 0.553751 11.668 0.491211ZM8.48242 12.4219C8.51583 13.3252 8.6099 14.2251 8.76562 15.1152L8.83887 15.5107C9.03951 16.5837 9.36913 17.629 9.82031 18.623C10.1554 19.3353 10.5349 19.9085 10.915 20.3018C11.298 20.6978 11.6689 20.8984 11.9863 20.8984C12.3038 20.8984 12.6738 20.6977 13.0566 20.3018C13.4364 19.9089 13.8142 19.3364 14.1484 18.625L14.3125 18.249C14.6813 17.3677 14.9559 16.4495 15.1318 15.5098L15.1328 15.5088C15.3317 14.4906 15.4503 13.4585 15.4883 12.4219H8.48242ZM17.2334 12.4219C17.2272 15.202 16.5142 17.933 15.165 20.3623C15.3205 20.3062 15.4754 20.2473 15.6289 20.1826C17.8722 19.2328 19.6589 17.4498 20.6113 15.209C20.9872 14.3218 21.2202 13.3811 21.3057 12.4219H17.2334ZM2.66699 12.4219C2.82139 14.0884 3.41888 15.6842 4.40039 17.042C5.40302 18.4288 6.76702 19.5147 8.34375 20.1816H8.34277C8.49499 20.2457 8.64974 20.3035 8.80469 20.3594C7.45618 17.9309 6.74312 15.201 6.73633 12.4219H2.66699ZM11.8193 2.22559C11.5132 2.28733 11.1694 2.51657 10.8213 2.90332C10.4719 3.29148 10.1268 3.82925 9.81934 4.48438L9.81836 4.4834C9.36697 5.47809 9.03851 6.52403 8.83789 7.59766L8.83691 7.59863C8.63748 8.61674 8.51885 9.64893 8.48047 10.6855H15.4893C15.4509 9.64859 15.3323 8.6161 15.1328 7.59766L15.1318 7.59668C14.9307 6.52261 14.6005 5.47639 14.1484 4.48145V4.48047C13.8413 3.82716 13.4964 3.29086 13.1475 2.90332C12.7991 2.51644 12.4547 2.28713 12.1484 2.22559C12.0387 2.22404 11.929 2.22404 11.8193 2.22559ZM8.77441 2.78906C8.62985 2.8418 8.4855 2.89682 8.34277 2.95703L8.34375 2.95801C6.10013 3.90822 4.31346 5.69215 3.36133 7.93359C2.98983 8.80992 2.75774 9.73832 2.66992 10.6855H6.73633C6.74469 7.92359 7.44606 5.20914 8.77441 2.78906ZM15.1934 2.78809C16.5217 5.20795 17.2231 7.92182 17.2314 10.6836H21.3027C21.143 9.02357 20.5439 7.43521 19.5635 6.08398C18.5617 4.70326 17.2007 3.62265 15.6289 2.95801C15.4853 2.89743 15.3398 2.84142 15.1934 2.78809Z" fill="white" stroke="white" stroke-width="0.2"/>
</svg>
