<svg width="28" height="20" viewBox="0 0 28 20" fill="none" xmlns="http://www.w3.org/2000/svg">
<mask id="mask0_4876_6847" style="mask-type:luminance" maskUnits="userSpaceOnUse" x="0" y="0" width="28" height="20">
<path d="M28 0.416992H0V19.587H28V0.416992Z" fill="white"/>
</mask>
<g mask="url(#mask0_4876_6847)">
<path d="M26.5037 2.04539C26.5429 2.04529 26.5812 2.0598 26.6138 2.08706C26.6464 2.11432 26.6717 2.15311 26.6867 2.19849C26.7017 2.24388 26.7055 2.29381 26.6978 2.34195C26.6901 2.39009 26.6711 2.43427 26.6433 2.46887L14.3483 17.8843C14.3111 17.9303 14.2609 17.9562 14.2087 17.9562C14.1574 17.9563 14.1082 17.931 14.0717 17.8859L1.36052 2.47126C1.3321 2.43685 1.31256 2.39254 1.30442 2.34406C1.29629 2.29558 1.29994 2.24516 1.31489 2.19931C1.32985 2.15345 1.35543 2.11427 1.38833 2.08684C1.42123 2.0594 1.45993 2.04496 1.49944 2.04539H26.5037ZM26.5037 0.416993H1.49944C1.20118 0.416685 0.909654 0.528152 0.662282 0.737084C0.41491 0.946017 0.222982 1.24288 0.111138 1.58957C-0.000707139 1.93625 -0.0273653 2.31694 0.0345852 2.68276C0.0965357 3.04858 0.244268 3.38284 0.458817 3.64262L13.1662 19.058C13.4486 19.3994 13.8267 19.5881 14.219 19.5836C14.6113 19.5791 14.9865 19.3818 15.264 19.0341L27.5628 3.62025C27.772 3.35767 27.9144 3.02324 27.972 2.65922C28.0296 2.2952 27.9999 1.91793 27.8865 1.5751C27.7732 1.23228 27.5813 0.939281 27.3352 0.733146C27.0891 0.52701 26.7997 0.416991 26.5037 0.416993Z" fill="white"/>
</g>
<mask id="mask1_4876_6847" style="mask-type:luminance" maskUnits="userSpaceOnUse" x="1" y="2" width="26" height="16">
<path d="M25.7695 2.62842L14.2031 17.1294L2.24414 2.62842H25.7695Z" fill="white" stroke="white" stroke-width="1.16667"/>
</mask>
<g mask="url(#mask1_4876_6847)">
<mask id="path-4-inside-1_4876_6847" fill="white">
<path fill-rule="evenodd" clip-rule="evenodd" d="M18.5291 15.1594H17.6039L14.7687 7.70215H15.4557C15.5414 7.70932 15.6235 7.74822 15.6916 7.81394C15.7596 7.87965 15.8106 7.96921 15.838 8.07129C15.8514 8.10245 15.8648 8.13202 15.8782 8.16158L18.9529 14.509C18.9792 14.5628 18.9931 14.6248 18.9931 14.6879C18.9931 14.7511 18.9792 14.8131 18.9529 14.8669C18.9068 14.9551 18.8442 15.0279 18.7706 15.079C18.697 15.1301 18.6145 15.158 18.5304 15.1602M18.9931 20.4441L9.07366 19.5891L13.5701 7.70375H14.4431L17.2782 15.161L18.9931 20.4441ZM10.4049 15.1602H9.48022C9.39645 15.1583 9.31432 15.1308 9.241 15.0799C9.16768 15.0291 9.10542 14.9565 9.05964 14.8685C9.03403 14.8149 9.02051 14.7536 9.02051 14.6911C9.02051 14.6287 9.03403 14.5674 9.05964 14.5138L11.9585 8.16558C11.9719 8.13681 11.9852 8.10725 11.9986 8.07529C12.0259 7.9731 12.0768 7.88342 12.1449 7.81768C12.213 7.75194 12.2952 7.7131 12.381 7.70614H13.2438L10.4049 15.1602Z"/>
</mask>
<path fill-rule="evenodd" clip-rule="evenodd" d="M18.5291 15.1594H17.6039L14.7687 7.70215H15.4557C15.5414 7.70932 15.6235 7.74822 15.6916 7.81394C15.7596 7.87965 15.8106 7.96921 15.838 8.07129C15.8514 8.10245 15.8648 8.13202 15.8782 8.16158L18.9529 14.509C18.9792 14.5628 18.9931 14.6248 18.9931 14.6879C18.9931 14.7511 18.9792 14.8131 18.9529 14.8669C18.9068 14.9551 18.8442 15.0279 18.7706 15.079C18.697 15.1301 18.6145 15.158 18.5304 15.1602M18.9931 20.4441L9.07366 19.5891L13.5701 7.70375H14.4431L17.2782 15.161L18.9931 20.4441ZM10.4049 15.1602H9.48022C9.39645 15.1583 9.31432 15.1308 9.241 15.0799C9.16768 15.0291 9.10542 14.9565 9.05964 14.8685C9.03403 14.8149 9.02051 14.7536 9.02051 14.6911C9.02051 14.6287 9.03403 14.5674 9.05964 14.5138L11.9585 8.16558C11.9719 8.13681 11.9852 8.10725 11.9986 8.07529C12.0259 7.9731 12.0768 7.88342 12.1449 7.81768C12.213 7.75194 12.2952 7.7131 12.381 7.70614H13.2438L10.4049 15.1602Z" fill="white"/>
<path d="M17.6039 15.1594L16.5133 15.574L16.7993 16.326H17.6039V15.1594ZM14.7687 7.70215V6.53548H13.0771L13.6782 8.11674L14.7687 7.70215ZM15.4557 7.70215L15.553 6.53954L15.5044 6.53548H15.4557V7.70215ZM15.838 8.07129L14.7114 8.37412L14.7331 8.45484L14.7661 8.53165L15.838 8.07129ZM15.8782 8.16158L14.8153 8.64269L14.8216 8.65652L14.8282 8.67019L15.8782 8.16158ZM18.9529 14.509L17.9029 15.0176L17.9045 15.0209L18.9529 14.509ZM18.9529 14.8669L19.9867 15.4076L19.9942 15.3933L20.0013 15.3788L18.9529 14.8669ZM18.9931 20.4441L18.8929 21.6064L20.646 21.7575L20.1027 20.0839L18.9931 20.4441ZM9.07366 19.5891L7.98247 19.1763L7.43667 20.619L8.97347 20.7515L9.07366 19.5891ZM13.5701 7.70375V6.53708H12.7641L12.4789 7.29093L13.5701 7.70375ZM14.4431 7.70375L15.5336 7.28915L15.2477 6.53708H14.4431V7.70375ZM17.2782 15.161L18.3879 14.8008L18.379 14.7733L18.3687 14.7464L17.2782 15.161ZM10.4049 15.1602V16.3268H11.209L11.4951 15.5754L10.4049 15.1602ZM9.48022 15.1602L9.45443 16.3265L9.46733 16.3268H9.48022V15.1602ZM9.05964 14.8685L8.00694 15.3715L8.01552 15.3894L8.0247 15.4071L9.05964 14.8685ZM9.02051 14.6911H7.85384H9.02051ZM9.05964 14.5138L10.1123 15.0167L10.1167 15.0076L10.1209 14.9984L9.05964 14.5138ZM11.9585 8.16558L10.9007 7.67345L10.8972 7.68097L11.9585 8.16558ZM11.9986 8.07529L13.0748 8.52587L13.1054 8.45281L13.1258 8.37628L11.9986 8.07529ZM12.381 7.70614V6.53947H12.3337L12.2866 6.54329L12.381 7.70614ZM13.2438 7.70614L14.3341 8.12137L14.9366 6.53947H13.2438V7.70614ZM18.5291 15.1594V13.9927H17.6039V15.1594V16.326H18.5291V15.1594ZM17.6039 15.1594L18.6944 14.7448L15.8593 7.28755L14.7687 7.70215L13.6782 8.11674L16.5133 15.574L17.6039 15.1594ZM14.7687 7.70215V8.86882H15.4557V7.70215V6.53548H14.7687V7.70215ZM15.4557 7.70215L15.3584 8.86475C15.1491 8.84724 14.9859 8.75431 14.8812 8.65326L15.6916 7.81394L16.5019 6.97462C16.2611 6.74214 15.9338 6.5714 15.553 6.53954L15.4557 7.70215ZM15.6916 7.81394L14.8812 8.65326C14.78 8.5555 14.7323 8.45183 14.7114 8.37412L15.838 8.07129L16.9647 7.76845C16.889 7.4866 16.7393 7.20381 16.5019 6.97462L15.6916 7.81394ZM15.838 8.07129L14.7661 8.53165C14.7846 8.57474 14.8025 8.61422 14.8153 8.64269L15.8782 8.16158L16.941 7.68047C16.9272 7.64982 16.9183 7.63015 16.91 7.61092L15.838 8.07129ZM15.8782 8.16158L14.8282 8.67019L17.9029 15.0176L18.9529 14.509L20.0029 14.0004L16.9282 7.65297L15.8782 8.16158ZM18.9529 14.509L17.9045 15.0209C17.8488 14.9067 17.8265 14.7923 17.8265 14.6879H18.9931H20.1598C20.1598 14.4572 20.1096 14.219 20.0013 13.9971L18.9529 14.509ZM18.9931 14.6879H17.8265C17.8265 14.5836 17.8488 14.4692 17.9045 14.355L18.9529 14.8669L20.0013 15.3788C20.1096 15.1569 20.1598 14.9186 20.1598 14.6879H18.9931ZM18.9529 14.8669L17.9191 14.3262C17.9504 14.2663 18.0076 14.1884 18.1054 14.1206L18.7706 15.079L19.4358 16.0375C19.6808 15.8675 19.8631 15.644 19.9867 15.4076L18.9529 14.8669ZM18.7706 15.079L18.1054 14.1206C18.2059 14.0508 18.3418 13.998 18.5001 13.9939L18.5304 15.1602L18.5607 16.3264C18.8872 16.3179 19.188 16.2094 19.4358 16.0375L18.7706 15.079ZM18.9931 20.4441L19.0932 19.2817L9.17384 18.4268L9.07366 19.5891L8.97347 20.7515L18.8929 21.6064L18.9931 20.4441ZM9.07366 19.5891L10.1648 20.0019L14.6613 8.11656L13.5701 7.70375L12.4789 7.29093L7.98247 19.1763L9.07366 19.5891ZM13.5701 7.70375V8.87041H14.4431V7.70375V6.53708H13.5701V7.70375ZM14.4431 7.70375L13.3526 8.11834L16.1877 15.5756L17.2782 15.161L18.3687 14.7464L15.5336 7.28915L14.4431 7.70375ZM17.2782 15.161L16.1685 15.5211L17.8834 20.8042L18.9931 20.4441L20.1027 20.0839L18.3879 14.8008L17.2782 15.161ZM10.4049 15.1602V13.9935H9.48022V15.1602V16.3268H10.4049V15.1602ZM9.48022 15.1602L9.50601 13.9938C9.66613 13.9973 9.80392 14.0506 9.9058 14.1212L9.241 15.0799L8.5762 16.0386C8.82471 16.211 9.12677 16.3193 9.45443 16.3265L9.48022 15.1602ZM9.241 15.0799L9.9058 14.1212C10.0049 14.1899 10.0628 14.269 10.0946 14.33L9.05964 14.8685L8.0247 15.4071C8.148 15.644 8.33047 15.8683 8.5762 16.0386L9.241 15.0799ZM9.05964 14.8685L10.1123 14.3656C10.1657 14.4772 10.1872 14.5889 10.1872 14.6911H9.02051H7.85384C7.85384 14.9184 7.9024 15.1526 8.00694 15.3715L9.05964 14.8685ZM9.02051 14.6911H10.1872C10.1872 14.7934 10.1657 14.9051 10.1123 15.0167L9.05964 14.5138L8.00694 14.0108C7.9024 14.2296 7.85384 14.4639 7.85384 14.6911H9.02051ZM9.05964 14.5138L10.1209 14.9984L13.0197 8.65019L11.9585 8.16558L10.8972 7.68097L7.99838 14.0291L9.05964 14.5138ZM11.9585 8.16558L13.0163 8.6577C13.0332 8.62129 13.0534 8.57685 13.0748 8.52587L11.9986 8.07529L10.9225 7.6247C10.9171 7.63764 10.9105 7.65234 10.9007 7.67346L11.9585 8.16558ZM11.9986 8.07529L13.1258 8.37628C13.1049 8.45433 13.0571 8.55866 12.9553 8.657L12.1449 7.81768L11.3346 6.97836C11.0965 7.20819 10.9469 7.49187 10.8714 7.77429L11.9986 8.07529ZM12.1449 7.81768L12.9553 8.657C12.8501 8.75857 12.6859 8.85188 12.4754 8.86898L12.381 7.70614L12.2866 6.54329C11.9045 6.57431 11.576 6.74531 11.3346 6.97836L12.1449 7.81768ZM12.381 7.70614V8.8728H13.2438V7.70614V6.53947H12.381V7.70614ZM13.2438 7.70614L12.1535 7.2909L9.31461 14.7449L10.4049 15.1602L11.4951 15.5754L14.3341 8.12137L13.2438 7.70614Z" fill="white" mask="url(#path-4-inside-1_4876_6847)"/>
<mask id="path-6-inside-2_4876_6847" fill="white">
<path fill-rule="evenodd" clip-rule="evenodd" d="M7.49185 11.4833V6.67725C7.67312 6.79817 7.87534 6.86128 8.08067 6.86102C8.28292 6.86126 8.4821 6.79897 8.66056 6.67965V11.4833C8.61808 11.4796 8.57369 11.4777 8.52738 11.4777H7.6244C7.57979 11.4777 7.53539 11.4796 7.49121 11.4833"/>
</mask>
<path fill-rule="evenodd" clip-rule="evenodd" d="M7.49185 11.4833V6.67725C7.67312 6.79817 7.87534 6.86128 8.08067 6.86102C8.28292 6.86126 8.4821 6.79897 8.66056 6.67965V11.4833C8.61808 11.4796 8.57369 11.4777 8.52738 11.4777H7.6244C7.57979 11.4777 7.53539 11.4796 7.49121 11.4833" fill="white"/>
<path d="M7.49185 6.67725L8.13928 5.70671L6.32519 4.49655V6.67725H7.49185ZM8.08067 6.86102L8.08209 5.69435L8.07918 5.69435L8.08067 6.86102ZM8.66056 6.67965H9.82723V4.49617L8.0121 5.7098L8.66056 6.67965ZM8.66056 11.4833L8.55856 12.6455L9.82723 12.7569V11.4833H8.66056ZM7.49185 11.4833H8.65852V6.67725H7.49185H6.32519V11.4833H7.49185ZM7.49185 6.67725L6.84442 7.64778C7.20545 7.88862 7.63144 8.02826 8.08216 8.02768L8.08067 6.86102L8.07918 5.69435C8.09729 5.69433 8.11303 5.69721 8.12482 5.70089C8.13641 5.7045 8.14104 5.70788 8.13928 5.70671L7.49185 6.67725ZM8.08067 6.86102L8.07925 8.02768C8.52734 8.02823 8.95065 7.88912 9.30903 7.6495L8.66056 6.67965L8.0121 5.7098C8.01183 5.70998 8.01804 5.70583 8.03129 5.70169C8.04475 5.69748 8.06221 5.69433 8.08209 5.69435L8.08067 6.86102ZM8.66056 6.67965H7.4939V11.4833H8.66056H9.82723V6.67965H8.66056ZM8.66056 11.4833L8.76257 10.3211C8.68348 10.3142 8.60493 10.3111 8.52738 10.3111V11.4777V12.6444C8.54244 12.6444 8.55268 12.645 8.55856 12.6455L8.66056 11.4833ZM8.52738 11.4777V10.3111H7.6244V11.4777V12.6444H8.52738V11.4777ZM7.6244 11.4777V10.3111C7.54719 10.3111 7.47006 10.3143 7.3931 10.3208L7.49121 11.4833L7.58932 12.6459C7.60073 12.6449 7.61239 12.6444 7.6244 12.6444V11.4777Z" fill="white" mask="url(#path-6-inside-2_4876_6847)"/>
<path d="M8.41113 12.4321L8.45215 12.4438C8.46187 12.4488 8.47238 12.4565 8.48438 12.4663H7.66699C7.67897 12.4565 7.6895 12.4488 7.69922 12.4438L7.74121 12.4321H8.41113Z" fill="white" stroke="white" stroke-width="1.16667"/>
<mask id="path-9-inside-3_4876_6847" fill="white">
<path fill-rule="evenodd" clip-rule="evenodd" d="M8.07998 6.49084C7.8237 6.49042 7.57801 6.36258 7.39679 6.13536C7.21557 5.90814 7.11362 5.60008 7.11328 5.27874C7.11344 5.12097 7.13865 4.96483 7.18744 4.81941C7.23624 4.674 7.30765 4.54223 7.39749 4.43178C7.48701 4.31953 7.59332 4.23055 7.71033 4.16995C7.82734 4.10934 7.95274 4.07831 8.07934 4.07862C8.33208 4.08174 8.57378 4.20901 8.7525 4.4331C8.93122 4.6572 9.03272 4.96024 9.03521 5.27714C9.03543 5.43587 9.01066 5.59309 8.96232 5.7398C8.91399 5.88651 8.84304 6.01982 8.75355 6.13209C8.6657 6.24497 8.56076 6.33471 8.44487 6.39604C8.32899 6.45738 8.2045 6.48906 8.07871 6.48925"/>
</mask>
<path fill-rule="evenodd" clip-rule="evenodd" d="M8.07998 6.49084C7.8237 6.49042 7.57801 6.36258 7.39679 6.13536C7.21557 5.90814 7.11362 5.60008 7.11328 5.27874C7.11344 5.12097 7.13865 4.96483 7.18744 4.81941C7.23624 4.674 7.30765 4.54223 7.39749 4.43178C7.48701 4.31953 7.59332 4.23055 7.71033 4.16995C7.82734 4.10934 7.95274 4.07831 8.07934 4.07862C8.33208 4.08174 8.57378 4.20901 8.7525 4.4331C8.93122 4.6572 9.03272 4.96024 9.03521 5.27714C9.03543 5.43587 9.01066 5.59309 8.96232 5.7398C8.91399 5.88651 8.84304 6.01982 8.75355 6.13209C8.6657 6.24497 8.56076 6.33471 8.44487 6.39604C8.32899 6.45738 8.2045 6.48906 8.07871 6.48925" fill="white"/>
<path d="M7.11328 5.27874L5.94661 5.27759L5.94662 5.27996L7.11328 5.27874ZM7.39749 4.43178L8.30256 5.16805L8.30962 5.1592L7.39749 4.43178ZM8.07934 4.07862L8.09376 2.91198L8.0822 2.91195L8.07934 4.07862ZM9.03521 5.27714L10.2019 5.27558L10.2018 5.26797L9.03521 5.27714ZM8.75355 6.13209L7.8412 5.40482L7.83283 5.41558L8.75355 6.13209ZM8.07998 6.49084L8.08191 5.32418C8.23041 5.32442 8.30265 5.40009 8.3089 5.40792L7.39679 6.13536L6.48469 6.8628C6.85337 7.32508 7.417 7.65642 8.07806 7.65751L8.07998 6.49084ZM7.39679 6.13536L8.3089 5.40792C8.31136 5.411 8.30338 5.40173 8.29479 5.37577C8.28633 5.35021 8.27999 5.31633 8.27995 5.27751L7.11328 5.27874L5.94662 5.27996C5.9472 5.83559 6.12137 6.40725 6.48469 6.8628L7.39679 6.13536ZM7.11328 5.27874L8.27995 5.27988C8.27998 5.24428 8.28586 5.21332 8.2935 5.19057L7.18744 4.81941L6.08139 4.44826C5.99143 4.71634 5.94689 4.99767 5.94662 5.27759L7.11328 5.27874ZM7.18744 4.81941L8.2935 5.19057C8.29716 5.17966 8.30066 5.17232 8.30282 5.16832C8.305 5.16429 8.30536 5.16453 8.30252 5.16802L7.39749 4.43178L6.49247 3.69554C6.30763 3.92276 6.17128 4.18038 6.08139 4.44826L7.18744 4.81941ZM7.39749 4.43178L8.30962 5.1592C8.30626 5.16341 8.28799 5.18462 8.2469 5.2059L7.71033 4.16995L7.17376 3.13399C6.89866 3.27648 6.66776 3.47566 6.48537 3.70436L7.39749 4.43178ZM7.71033 4.16995L8.2469 5.2059C8.20427 5.22798 8.14535 5.24545 8.07648 5.24528L8.07934 4.07862L8.0822 2.91195C7.76013 2.91116 7.45041 2.9907 7.17376 3.13399L7.71033 4.16995ZM8.07934 4.07862L8.06493 5.24519C7.91813 5.24338 7.84696 5.16878 7.84039 5.16055L8.7525 4.4331L9.66461 3.70566C9.30059 3.24924 8.74604 2.9201 8.09375 2.91204L8.07934 4.07862ZM8.7525 4.4331L7.84039 5.16055C7.8377 5.15717 7.84531 5.16586 7.85368 5.19086C7.86193 5.21549 7.86828 5.24837 7.86858 5.28631L9.03521 5.27714L10.2018 5.26797C10.1975 4.71916 10.0235 4.1557 9.66461 3.70566L8.7525 4.4331ZM9.03521 5.27714L7.86855 5.2787C7.8686 5.31638 7.86253 5.34961 7.85424 5.37474L8.96232 5.7398L10.0704 6.10486C10.1588 5.83658 10.2023 5.55537 10.2019 5.27558L9.03521 5.27714ZM8.96232 5.7398L7.85424 5.37474C7.85025 5.38686 7.84629 5.39547 7.84348 5.40074C7.84066 5.40604 7.83948 5.40711 7.84126 5.40487L8.75355 6.13209L9.66583 6.85931C9.84787 6.63094 9.98209 6.37294 10.0704 6.10486L8.96232 5.7398ZM8.75355 6.13209L7.83283 5.41558C7.837 5.41022 7.85634 5.38754 7.89914 5.36489L8.44487 6.39604L8.99061 7.4272C9.26518 7.28189 9.4944 7.07972 9.67427 6.8486L8.75355 6.13209ZM8.44487 6.39604L7.89914 5.36489C7.94354 5.34139 8.005 5.32268 8.07702 5.32258L8.07871 6.48925L8.0804 7.65591C8.404 7.65544 8.71444 7.57336 8.99061 7.4272L8.44487 6.39604Z" fill="white" mask="url(#path-9-inside-3_4876_6847)"/>
<mask id="path-11-inside-4_4876_6847" fill="white">
<path fill-rule="evenodd" clip-rule="evenodd" d="M9.98608 8.21041C9.94709 8.2102 9.90975 8.19069 9.88218 8.15612C9.85461 8.12155 9.83903 8.07472 9.83887 8.02583V5.82774C9.93427 5.62945 10.0194 5.42368 10.0938 5.2117C10.1575 5.02873 10.2212 4.83776 10.2773 4.6444C10.4308 4.64452 10.5822 4.59993 10.7196 4.51416V8.02983C10.7194 8.07872 10.7038 8.12554 10.6762 8.16011C10.6487 8.19468 10.6113 8.21419 10.5723 8.2144H9.98352"/>
</mask>
<path fill-rule="evenodd" clip-rule="evenodd" d="M9.98608 8.21041C9.94709 8.2102 9.90975 8.19069 9.88218 8.15612C9.85461 8.12155 9.83903 8.07472 9.83887 8.02583V5.82774C9.93427 5.62945 10.0194 5.42368 10.0938 5.2117C10.1575 5.02873 10.2212 4.83776 10.2773 4.6444C10.4308 4.64452 10.5822 4.59993 10.7196 4.51416V8.02983C10.7194 8.07872 10.7038 8.12554 10.6762 8.16011C10.6487 8.19468 10.6113 8.21419 10.5723 8.2144H9.98352" fill="white"/>
<path d="M9.83887 8.02583H8.67219L8.67221 8.02984L9.83887 8.02583ZM9.83887 5.82774L8.78756 5.32191L8.6722 5.56167V5.82774H9.83887ZM10.0938 5.2117L11.1947 5.59785L11.1955 5.59541L10.0938 5.2117ZM10.2773 4.6444L10.2782 3.47774L9.4011 3.47709L9.15681 4.31944L10.2773 4.6444ZM10.7196 4.51416H11.8862V2.41046L10.1017 3.52452L10.7196 4.51416ZM10.7196 8.02983L11.8862 8.03384V8.02983H10.7196ZM10.5723 8.2144V9.38109L10.5786 9.38105L10.5723 8.2144ZM9.98608 8.21041L9.99237 7.04376C10.3563 7.04572 10.6351 7.22911 10.7943 7.42868L9.88218 8.15612L8.97007 8.88356C9.18437 9.15227 9.53789 9.37468 9.97979 9.37706L9.98608 8.21041ZM9.88218 8.15612L10.7943 7.42868C10.9481 7.6215 11.0049 7.83712 11.0055 8.02183L9.83887 8.02583L8.67221 8.02984C8.67318 8.31232 8.76114 8.6216 8.97007 8.88356L9.88218 8.15612ZM9.83887 8.02583H11.0055V5.82774H9.83887H8.6722V8.02583H9.83887ZM9.83887 5.82774L10.8902 6.33357C11.0047 6.09553 11.1063 5.84975 11.1947 5.59784L10.0938 5.2117L8.99285 4.82556C8.9325 4.99762 8.86384 5.16338 8.78756 5.32191L9.83887 5.82774ZM10.0938 5.2117L11.1955 5.59541C11.2622 5.40382 11.3335 5.19103 11.3978 4.96936L10.2773 4.6444L9.15681 4.31944C9.10894 4.48449 9.05273 4.65363 8.992 4.82799L10.0938 5.2117ZM10.2773 4.6444L10.2764 5.81107C10.661 5.81135 11.0252 5.69871 11.3374 5.5038L10.7196 4.51416L10.1017 3.52452C10.1391 3.50115 10.2006 3.47768 10.2782 3.47774L10.2773 4.6444ZM10.7196 4.51416H9.55289V8.02983H10.7196H11.8862V4.51416H10.7196ZM10.7196 8.02983L9.5529 8.02583C9.55353 7.84108 9.61037 7.62547 9.76414 7.43267L10.6762 8.16011L11.5884 8.88755C11.7973 8.62562 11.8852 8.31636 11.8862 8.03384L10.7196 8.02983ZM10.6762 8.16011L9.76414 7.43267C9.9233 7.2331 10.2021 7.04971 10.566 7.04775L10.5723 8.2144L10.5786 9.38105C11.0205 9.37867 11.374 9.15626 11.5884 8.88755L10.6762 8.16011ZM10.5723 8.2144V7.04774H9.98352V8.2144V9.38107H10.5723V8.2144Z" fill="white" mask="url(#path-11-inside-4_4876_6847)"/>
<mask id="path-13-inside-5_4876_6847" fill="white">
<path fill-rule="evenodd" clip-rule="evenodd" d="M10.9628 8.77593H9.60032C9.56133 8.77572 9.524 8.75621 9.49643 8.72164C9.46886 8.68707 9.45329 8.64025 9.45312 8.59136C9.45345 8.39159 9.51586 8.19984 9.6271 8.05682C9.682 7.98505 9.74787 7.92788 9.82079 7.88876C9.89371 7.84963 9.97218 7.82935 10.0515 7.8291H10.5122C10.5916 7.82921 10.6701 7.84944 10.743 7.88857C10.8159 7.92771 10.8818 7.98494 10.9366 8.05682C11.0484 8.19942 11.1109 8.39144 11.1106 8.59136C11.1106 8.64031 11.0951 8.68726 11.0675 8.72187C11.0399 8.75649 11.0024 8.77593 10.9634 8.77593"/>
</mask>
<path fill-rule="evenodd" clip-rule="evenodd" d="M10.9628 8.77593H9.60032C9.56133 8.77572 9.524 8.75621 9.49643 8.72164C9.46886 8.68707 9.45329 8.64025 9.45312 8.59136C9.45345 8.39159 9.51586 8.19984 9.6271 8.05682C9.682 7.98505 9.74787 7.92788 9.82079 7.88876C9.89371 7.84963 9.97218 7.82935 10.0515 7.8291H10.5122C10.5916 7.82921 10.6701 7.84944 10.743 7.88857C10.8159 7.92771 10.8818 7.98494 10.9366 8.05682C11.0484 8.19942 11.1109 8.39144 11.1106 8.59136C11.1106 8.64031 11.0951 8.68726 11.0675 8.72187C11.0399 8.75649 11.0024 8.77593 10.9634 8.77593" fill="white"/>
<path d="M9.60032 8.77593L9.59403 9.9426H9.60032V8.77593ZM9.45312 8.59136L8.28644 8.58947L8.28647 8.59536L9.45312 8.59136ZM9.6271 8.05682L10.548 8.77311L10.5537 8.76568L9.6271 8.05682ZM10.0515 7.8291V6.66243L10.0479 6.66244L10.0515 7.8291ZM10.5122 7.8291L10.5138 6.66243H10.5122V7.8291ZM10.9366 8.05682L10.0091 8.76444L10.0137 8.77051L10.0184 8.77652L10.9366 8.05682ZM11.1106 8.59136L9.94395 8.58968V8.59136H11.1106ZM10.9628 8.77593V7.60927H9.60032V8.77593V9.9426H10.9628V8.77593ZM9.60032 8.77593L9.60661 7.60928C9.97072 7.61125 10.2495 7.79479 10.4085 7.9942L9.49643 8.72164L8.58433 9.44908C8.7985 9.71763 9.15194 9.9402 9.59403 9.94258L9.60032 8.77593ZM9.49643 8.72164L10.4085 7.9942C10.5623 8.18703 10.6192 8.40264 10.6198 8.58736L9.45312 8.59136L8.28647 8.59536C8.28743 8.87785 8.3754 9.18712 8.58433 9.44908L9.49643 8.72164ZM9.45312 8.59136L10.6198 8.59325C10.6198 8.61317 10.6168 8.63662 10.6079 8.66389C10.5991 8.6908 10.5819 8.72946 10.548 8.77309L9.6271 8.05682L8.70619 7.34056C8.41965 7.70896 8.28716 8.15898 8.28646 8.58947L9.45312 8.59136ZM9.6271 8.05682L10.5537 8.76568C10.5172 8.81339 10.4589 8.87037 10.3724 8.91679L9.82079 7.88876L9.26919 6.86073C9.03684 6.9854 8.84678 7.15672 8.70047 7.34797L9.6271 8.05682ZM9.82079 7.88876L10.3724 8.91679C10.2843 8.96408 10.1754 8.99539 10.0551 8.99576L10.0515 7.8291L10.0479 6.66244C9.76899 6.6633 9.50317 6.73519 9.26919 6.86073L9.82079 7.88876ZM10.0515 7.8291V8.99577H10.5122V7.8291V6.66243H10.0515V7.8291ZM10.5122 7.8291L10.5106 8.99577C10.3896 8.9956 10.28 8.96417 10.1914 8.91661L10.743 7.88857L11.2946 6.86054C11.0601 6.73471 10.7935 6.66281 10.5138 6.66244L10.5122 7.8291ZM10.743 7.88857L10.1914 8.91661C10.1044 8.86994 10.0458 8.81258 10.0091 8.76444L10.9366 8.05682L11.8642 7.34921C11.7178 7.1573 11.5274 6.98547 11.2946 6.86054L10.743 7.88857ZM10.9366 8.05682L10.0184 8.77652C9.98324 8.73165 9.96537 8.69167 9.95626 8.66367C9.94702 8.6353 9.94392 8.61072 9.94395 8.58968L11.1106 8.59136L12.2773 8.59304C12.2779 8.16028 12.1448 7.70703 11.8549 7.33713L10.9366 8.05682ZM11.1106 8.59136H9.94395C9.94395 8.40568 10.0006 8.18853 10.1554 7.99443L11.0675 8.72187L11.9796 9.44932C12.1896 9.18599 12.2773 8.87494 12.2773 8.59136H11.1106ZM11.0675 8.72187L10.1554 7.99443C10.3157 7.79347 10.597 7.60927 10.9634 7.60927V8.77593V9.9426C11.4079 9.9426 11.7641 9.71951 11.9796 9.44932L11.0675 8.72187Z" fill="white" mask="url(#path-13-inside-5_4876_6847)"/>
<path d="M10.2793 3.10254C10.29 3.10852 10.3185 3.12888 10.3467 3.18164C10.3759 3.23656 10.3965 3.31133 10.3965 3.39551C10.3965 3.51129 10.3586 3.60285 10.3184 3.65332C10.3 3.67631 10.2847 3.68506 10.2783 3.68848C10.2751 3.68664 10.2705 3.68361 10.2646 3.67871C10.2426 3.66021 10.2089 3.61959 10.1855 3.54883C10.1623 3.47848 10.1552 3.39597 10.168 3.31543C10.1808 3.23465 10.2102 3.17419 10.2393 3.1377C10.2572 3.11517 10.2721 3.1064 10.2793 3.10254Z" fill="white" stroke="white" stroke-width="1.16667"/>
<path d="M19.9238 10.894H19.9219V7.44287H19.9238V10.894Z" fill="white" stroke="white" stroke-width="1.16667"/>
<path d="M20.2588 12.4321L20.2998 12.4438C20.3095 12.4488 20.32 12.4565 20.332 12.4663H19.5146C19.5266 12.4565 19.5372 12.4488 19.5469 12.4438L19.5889 12.4321H20.2588Z" fill="white" stroke="white" stroke-width="1.16667"/>
<mask id="path-18-inside-6_4876_6847" fill="white">
<path fill-rule="evenodd" clip-rule="evenodd" d="M19.9191 6.49089C19.7932 6.49069 19.6687 6.45908 19.5528 6.3979C19.4368 6.33672 19.3317 6.24718 19.2436 6.13453C19.1541 6.02229 19.0831 5.88898 19.0348 5.74227C18.9864 5.59555 18.9617 5.43832 18.9619 5.27958C18.9644 4.96268 19.0659 4.65964 19.2446 4.43555C19.4234 4.21145 19.665 4.08418 19.9178 4.08106C20.0444 4.08079 20.1698 4.11185 20.2868 4.17245C20.4038 4.23305 20.5101 4.32201 20.5996 4.43422C20.6895 4.54464 20.761 4.67641 20.8098 4.82183C20.8586 4.96725 20.8837 5.12341 20.8838 5.28118C20.8835 5.60231 20.7816 5.91016 20.6005 6.13724C20.4194 6.36431 20.1739 6.49206 19.9178 6.49249"/>
</mask>
<path fill-rule="evenodd" clip-rule="evenodd" d="M19.9191 6.49089C19.7932 6.49069 19.6687 6.45908 19.5528 6.3979C19.4368 6.33672 19.3317 6.24718 19.2436 6.13453C19.1541 6.02229 19.0831 5.88898 19.0348 5.74227C18.9864 5.59555 18.9617 5.43832 18.9619 5.27958C18.9644 4.96268 19.0659 4.65964 19.2446 4.43555C19.4234 4.21145 19.665 4.08418 19.9178 4.08106C20.0444 4.08079 20.1698 4.11185 20.2868 4.17245C20.4038 4.23305 20.5101 4.32201 20.5996 4.43422C20.6895 4.54464 20.761 4.67641 20.8098 4.82183C20.8586 4.96725 20.8837 5.12341 20.8838 5.28118C20.8835 5.60231 20.7816 5.91016 20.6005 6.13724C20.4194 6.36431 20.1739 6.49206 19.9178 6.49249" fill="white"/>
<path d="M19.2436 6.13453L20.1627 5.41588L20.1557 5.40706L19.2436 6.13453ZM18.9619 5.27958L17.7953 5.27041L17.7953 5.27776L18.9619 5.27958ZM19.9178 4.08106L19.9153 2.91433L19.9034 2.91448L19.9178 4.08106ZM20.5996 4.43422L19.6877 5.16192L19.6948 5.17071L20.5996 4.43422ZM20.8838 5.28118L22.0505 5.2824L22.0505 5.28029L20.8838 5.28118ZM19.9191 6.49089L19.9209 5.32422C19.9923 5.32433 20.0532 5.34283 20.0971 5.36603L19.5528 6.3979L19.0084 7.42977C19.2843 7.57534 19.5942 7.65706 19.9173 7.65755L19.9191 6.49089ZM19.5528 6.3979L20.0971 5.36603C20.1395 5.38836 20.1586 5.4107 20.1627 5.41591L19.2436 6.13453L18.3245 6.85315C18.5048 7.08366 18.7341 7.28507 19.0084 7.42977L19.5528 6.3979ZM19.2436 6.13453L20.1557 5.40706C20.1575 5.40936 20.1564 5.40834 20.1536 5.40308C20.1508 5.39785 20.1468 5.38929 20.1428 5.37721L19.0348 5.74227L17.9267 6.10733C18.015 6.37549 18.1493 6.63358 18.3315 6.86199L19.2436 6.13453ZM19.0348 5.74227L20.1428 5.37721C20.1346 5.3521 20.1285 5.31895 20.1286 5.2814L18.9619 5.27958L17.7953 5.27776C17.7948 5.55769 17.8383 5.83901 17.9267 6.10733L19.0348 5.74227ZM18.9619 5.27958L20.1285 5.28875C20.1288 5.25083 20.1352 5.21795 20.1434 5.19332C20.1518 5.16832 20.1594 5.15962 20.1567 5.16299L19.2446 4.43555L18.3325 3.7081C17.9736 4.15812 17.7996 4.72158 17.7953 5.27041L18.9619 5.27958ZM19.2446 4.43555L20.1567 5.16299C20.1502 5.17121 20.079 5.24582 19.9322 5.24763L19.9178 4.08106L19.9034 2.91448C19.2511 2.92254 18.6965 3.25169 18.3325 3.7081L19.2446 4.43555ZM19.9178 4.08106L19.9202 5.24772C19.8515 5.24787 19.7927 5.23043 19.7502 5.2084L20.2868 4.17245L20.8233 3.13649C20.5468 2.99326 20.2372 2.91371 19.9153 2.91439L19.9178 4.08106ZM20.2868 4.17245L19.7502 5.2084C19.7093 5.18719 19.6911 5.16607 19.6877 5.16189L20.5996 4.43422L21.5116 3.70656C21.3292 3.47795 21.0983 3.27891 20.8233 3.13649L20.2868 4.17245ZM20.5996 4.43422L19.6948 5.17071C19.692 5.16718 19.6923 5.16691 19.6944 5.17089C19.6966 5.17484 19.7001 5.18213 19.7037 5.19299L20.8098 4.82183L21.9158 4.45067C21.8259 4.18267 21.6894 3.92497 21.5045 3.69774L20.5996 4.43422ZM20.8098 4.82183L19.7037 5.19299C19.7113 5.21557 19.7172 5.24644 19.7172 5.28206L20.8838 5.28118L22.0505 5.28029C22.0503 5.00038 22.0058 4.71893 21.9158 4.45067L20.8098 4.82183ZM20.8838 5.28118L19.7172 5.27995C19.7171 5.31868 19.7108 5.35247 19.7024 5.37794C19.6938 5.40379 19.6859 5.41297 19.6884 5.40979L20.6005 6.13724L21.5126 6.86468C21.8759 6.40924 22.0499 5.83778 22.0505 5.2824L20.8838 5.28118ZM20.6005 6.13724L19.6884 5.40979C19.6948 5.4018 19.7672 5.32607 19.9159 5.32582L19.9178 6.49249L19.9197 7.65915C20.5806 7.65806 21.1441 7.32682 21.5126 6.86468L20.6005 6.13724Z" fill="white" mask="url(#path-18-inside-6_4876_6847)"/>
<mask id="path-20-inside-7_4876_6847" fill="white">
<path fill-rule="evenodd" clip-rule="evenodd" d="M17.2766 7.73659V4.51416C17.414 4.59993 17.5654 4.64451 17.7189 4.6444C17.7756 4.83856 17.8374 5.03032 17.903 5.2141C17.9775 5.42681 18.0626 5.63337 18.1579 5.83254V7.73659H18.0763H17.355H17.2734"/>
</mask>
<path fill-rule="evenodd" clip-rule="evenodd" d="M17.2766 7.73659V4.51416C17.414 4.59993 17.5654 4.64451 17.7189 4.6444C17.7756 4.83856 17.8374 5.03032 17.903 5.2141C17.9775 5.42681 18.0626 5.63337 18.1579 5.83254V7.73659H18.0763H17.355H17.2734" fill="white"/>
<path d="M17.2766 4.51416L17.8944 3.52452L16.1099 2.41046V4.51416H17.2766ZM17.7189 4.6444L18.8387 4.31728L18.5933 3.47708L17.718 3.47773L17.7189 4.6444ZM17.903 5.2141L19.0042 4.82874L19.0017 4.82169L17.903 5.2141ZM18.1579 5.83254H19.3246V5.56773L19.2103 5.32886L18.1579 5.83254ZM18.1579 7.73659V8.90326H19.3246V7.73659H18.1579ZM17.2766 7.73659H18.4433V4.51416H17.2766H16.1099V7.73659H17.2766ZM17.2766 4.51416L16.6588 5.5038C16.971 5.69874 17.3352 5.81135 17.7197 5.81106L17.7189 4.6444L17.718 3.47773C17.7955 3.47767 17.8569 3.50112 17.8944 3.52452L17.2766 4.51416ZM17.7189 4.6444L16.599 4.97151C16.6616 5.18586 16.7304 5.39951 16.8043 5.60651L17.903 5.2141L19.0017 4.82169C18.9444 4.66114 18.8895 4.49125 18.8387 4.31728L17.7189 4.6444ZM17.903 5.2141L16.8018 5.59945C16.8901 5.85168 16.9915 6.09778 17.1056 6.33621L18.1579 5.83254L19.2103 5.32886C19.1337 5.16895 19.0648 5.00193 19.0042 4.82875L17.903 5.2141ZM18.1579 5.83254H16.9913V7.73659H18.1579H19.3246V5.83254H18.1579ZM18.1579 7.73659V6.56992H18.0763V7.73659V8.90326H18.1579V7.73659ZM18.0763 7.73659V6.56992H17.355V7.73659V8.90326H18.0763V7.73659ZM17.355 7.73659V6.56992H17.2734V7.73659V8.90326H17.355V7.73659Z" fill="white" mask="url(#path-20-inside-7_4876_6847)"/>
<mask id="path-22-inside-8_4876_6847" fill="white">
<path fill-rule="evenodd" clip-rule="evenodd" d="M18.4003 9.05036H17.0378C16.9989 9.05015 16.9615 9.03063 16.934 8.99606C16.9064 8.96149 16.8908 8.91467 16.8906 8.86579C16.8909 8.66601 16.9534 8.47426 17.0646 8.33124C17.1195 8.25947 17.1854 8.20231 17.2583 8.16318C17.3313 8.12406 17.4097 8.10376 17.489 8.10352H17.9498C18.0291 8.10362 18.1076 8.12385 18.1805 8.16299C18.2535 8.20212 18.3193 8.25936 18.3741 8.33124C18.4859 8.47383 18.5484 8.66586 18.5481 8.86579C18.5481 8.91474 18.5326 8.96169 18.505 8.9963C18.4774 9.03091 18.4393 9.05036 18.4003 9.05036Z"/>
</mask>
<path fill-rule="evenodd" clip-rule="evenodd" d="M18.4003 9.05036H17.0378C16.9989 9.05015 16.9615 9.03063 16.934 8.99606C16.9064 8.96149 16.8908 8.91467 16.8906 8.86579C16.8909 8.66601 16.9534 8.47426 17.0646 8.33124C17.1195 8.25947 17.1854 8.20231 17.2583 8.16318C17.3313 8.12406 17.4097 8.10376 17.489 8.10352H17.9498C18.0291 8.10362 18.1076 8.12385 18.1805 8.16299C18.2535 8.20212 18.3193 8.25936 18.3741 8.33124C18.4859 8.47383 18.5484 8.66586 18.5481 8.86579C18.5481 8.91474 18.5326 8.96169 18.505 8.9963C18.4774 9.03091 18.4393 9.05036 18.4003 9.05036Z" fill="white"/>
<path d="M18.4003 9.05036V7.88369V9.05036ZM17.0378 9.05036L17.0315 10.217H17.0378V9.05036ZM16.8906 8.86579L15.7239 8.86389L15.724 8.86979L16.8906 8.86579ZM17.0646 8.33124L17.9855 9.04753L17.9912 9.04009L17.0646 8.33124ZM17.489 8.10352V6.93684L17.4854 6.93685L17.489 8.10352ZM17.9498 8.10352L17.9513 6.93685H17.9498V8.10352ZM18.3741 8.33124L17.4466 9.03885L17.4512 9.04492L17.4559 9.05093L18.3741 8.33124ZM18.5481 8.86579L17.3814 8.86411V8.86579H18.5481ZM18.4003 9.05036V7.88369H17.0378V9.05036V10.217H18.4003V9.05036ZM17.0378 9.05036L17.0441 7.88371C17.4085 7.88568 17.6872 8.0694 17.8461 8.26862L16.934 8.99606L16.0218 9.7235C16.2359 9.99185 16.5892 10.2146 17.0315 10.217L17.0378 9.05036ZM16.934 8.99606L17.8461 8.26862C17.9996 8.46115 18.0566 8.67666 18.0573 8.86178L16.8906 8.86579L15.724 8.86979C15.7249 9.15269 15.8132 9.46183 16.0218 9.7235L16.934 8.99606ZM16.8906 8.86579L18.0573 8.86768C18.0573 8.88759 18.0543 8.91103 18.0454 8.9383C18.0367 8.9652 18.0195 9.00386 17.9855 9.0475L17.0646 8.33124L16.1437 7.61497C15.8571 7.98339 15.7247 8.43342 15.724 8.86389L16.8906 8.86579ZM17.0646 8.33124L17.9912 9.04009C17.9545 9.08807 17.8962 9.14494 17.8099 9.19121L17.2583 8.16318L16.7067 7.13515C16.4746 7.25968 16.2845 7.43086 16.138 7.62239L17.0646 8.33124ZM17.2583 8.16318L17.8099 9.19121C17.722 9.23842 17.6131 9.2698 17.4926 9.27018L17.489 8.10352L17.4854 6.93685C17.2063 6.93772 16.9406 7.00969 16.7067 7.13515L17.2583 8.16318ZM17.489 8.10352V9.27018H17.9498V8.10352V6.93685H17.489V8.10352ZM17.9498 8.10352L17.9482 9.27018C17.8271 9.27002 17.7175 9.23856 17.6289 9.19102L18.1805 8.16299L18.7321 7.13496C18.4977 7.00915 18.2311 6.93723 17.9513 6.93685L17.9498 8.10352ZM18.1805 8.16299L17.6289 9.19102C17.5419 9.1443 17.4832 9.08689 17.4466 9.03885L18.3741 8.33124L19.3017 7.62362C19.1554 7.43182 18.9651 7.25994 18.7321 7.13496L18.1805 8.16299ZM18.3741 8.33124L17.4559 9.05093C17.4207 9.00605 17.4029 8.96607 17.3938 8.93808C17.3845 8.90971 17.3814 8.88514 17.3814 8.86411L18.5481 8.86579L19.7148 8.86746C19.7154 8.43473 19.5823 7.98145 19.2924 7.61155L18.3741 8.33124ZM18.5481 8.86579H17.3814C17.3814 8.68045 17.4379 8.4632 17.5929 8.26886L18.505 8.9963L19.4171 9.72374C19.6273 9.46017 19.7148 9.14903 19.7148 8.86579H18.5481ZM18.505 8.9963L17.5929 8.26886C17.7574 8.06263 18.0398 7.88369 18.4003 7.88369V9.05036V10.217C18.8388 10.217 19.1974 9.9992 19.4171 9.72374L18.505 8.9963Z" fill="white" mask="url(#path-22-inside-8_4876_6847)"/>
<path d="M17.7188 3.10254C17.7295 3.10852 17.758 3.12889 17.7861 3.18164C17.8154 3.2366 17.8359 3.31137 17.8359 3.39551C17.8359 3.45044 17.8277 3.50288 17.8125 3.54883C17.7973 3.59486 17.7767 3.62963 17.7578 3.65332C17.7396 3.67616 17.7243 3.68499 17.7178 3.68848C17.7145 3.68664 17.71 3.68362 17.7041 3.67871C17.6821 3.66026 17.6484 3.61968 17.625 3.54883C17.6017 3.47844 17.5947 3.39593 17.6074 3.31543C17.6203 3.2346 17.6497 3.17416 17.6787 3.1377C17.6967 3.11516 17.7116 3.10639 17.7188 3.10254Z" fill="white" stroke="white" stroke-width="1.16667"/>
<mask id="path-25-inside-9_4876_6847" fill="white">
<path fill-rule="evenodd" clip-rule="evenodd" d="M8.77196 6.52381C8.6372 6.52171 8.50578 6.47095 8.39344 6.3776C8.36749 6.35896 8.34483 6.33393 8.32682 6.304C8.30881 6.27407 8.29584 6.23988 8.28868 6.20349C8.28151 6.16709 8.2803 6.12925 8.28513 6.09225C8.28995 6.05526 8.30071 6.01987 8.31676 5.98824C8.3328 5.9566 8.35379 5.92938 8.37846 5.90821C8.40314 5.88704 8.43098 5.87236 8.46031 5.86506C8.48963 5.85776 8.51983 5.858 8.54908 5.86575C8.57834 5.8735 8.60603 5.88862 8.63049 5.91017C8.66173 5.93984 8.6985 5.95902 8.73731 5.96587C8.77612 5.97272 8.81569 5.96703 8.85226 5.94933C9.12118 5.82148 9.3799 5.17668 9.4895 4.87145C9.56661 4.65652 9.6348 4.43519 9.69533 4.21146C9.7221 4.11239 9.7495 4.01091 9.7718 3.91024C9.77861 3.87385 9.79121 3.83957 9.80885 3.80945C9.82649 3.77933 9.8488 3.75399 9.87445 3.73495C9.9001 3.71592 9.92856 3.70358 9.9581 3.69868C9.98765 3.69378 10.0177 3.69643 10.0464 3.70645C10.0751 3.71648 10.1019 3.73367 10.1252 3.75701C10.1485 3.78035 10.1677 3.80935 10.1819 3.84227C10.196 3.87519 10.2046 3.91134 10.2073 3.94856C10.21 3.98578 10.2067 4.02329 10.1975 4.05885C10.1154 4.41358 10.0136 4.76067 9.89288 5.09757C9.73457 5.6682 9.42244 6.15169 9.01029 6.46469C8.93459 6.50341 8.85371 6.52375 8.77196 6.52462"/>
</mask>
<path fill-rule="evenodd" clip-rule="evenodd" d="M8.77196 6.52381C8.6372 6.52171 8.50578 6.47095 8.39344 6.3776C8.36749 6.35896 8.34483 6.33393 8.32682 6.304C8.30881 6.27407 8.29584 6.23988 8.28868 6.20349C8.28151 6.16709 8.2803 6.12925 8.28513 6.09225C8.28995 6.05526 8.30071 6.01987 8.31676 5.98824C8.3328 5.9566 8.35379 5.92938 8.37846 5.90821C8.40314 5.88704 8.43098 5.87236 8.46031 5.86506C8.48963 5.85776 8.51983 5.858 8.54908 5.86575C8.57834 5.8735 8.60603 5.88862 8.63049 5.91017C8.66173 5.93984 8.6985 5.95902 8.73731 5.96587C8.77612 5.97272 8.81569 5.96703 8.85226 5.94933C9.12118 5.82148 9.3799 5.17668 9.4895 4.87145C9.56661 4.65652 9.6348 4.43519 9.69533 4.21146C9.7221 4.11239 9.7495 4.01091 9.7718 3.91024C9.77861 3.87385 9.79121 3.83957 9.80885 3.80945C9.82649 3.77933 9.8488 3.75399 9.87445 3.73495C9.9001 3.71592 9.92856 3.70358 9.9581 3.69868C9.98765 3.69378 10.0177 3.69643 10.0464 3.70645C10.0751 3.71648 10.1019 3.73367 10.1252 3.75701C10.1485 3.78035 10.1677 3.80935 10.1819 3.84227C10.196 3.87519 10.2046 3.91134 10.2073 3.94856C10.21 3.98578 10.2067 4.02329 10.1975 4.05885C10.1154 4.41358 10.0136 4.76067 9.89288 5.09757C9.73457 5.6682 9.42244 6.15169 9.01029 6.46469C8.93459 6.50341 8.85371 6.52375 8.77196 6.52462" fill="white"/>
<path d="M8.39344 6.3776L9.13907 5.4803L9.10744 5.45401L9.07403 5.43002L8.39344 6.3776ZM8.63049 5.91017L9.43391 5.06422L9.41813 5.04924L9.40181 5.03486L8.63049 5.91017ZM8.85226 5.94933L8.35134 4.89564L8.34388 4.89925L8.85226 5.94933ZM9.4895 4.87145L10.5875 5.26575L10.5876 5.26541L9.4895 4.87145ZM9.69533 4.21146L10.8215 4.5162L10.8216 4.51572L9.69533 4.21146ZM9.7718 3.91024L10.9108 4.16258L10.915 4.14373L10.9186 4.12476L9.7718 3.91024ZM10.1975 4.05885L9.06777 3.76752L9.06413 3.78166L9.06084 3.79588L10.1975 4.05885ZM9.89288 5.09757L8.79462 4.70394L8.78015 4.74433L8.76868 4.78568L9.89288 5.09757ZM9.01029 6.46469L9.54156 7.50338L9.63358 7.45631L9.7159 7.39379L9.01029 6.46469ZM8.77196 6.52381L8.79014 5.35729C8.94437 5.35969 9.06506 5.4188 9.13907 5.4803L8.39344 6.3776L7.6478 7.27489C7.94649 7.5231 8.33003 7.68373 8.75378 7.69034L8.77196 6.52381ZM8.39344 6.3776L9.07403 5.43002C9.18836 5.51213 9.27038 5.60928 9.32648 5.7025L8.32682 6.304L7.32717 6.9055C7.41927 7.05857 7.54663 7.20579 7.71284 7.32517L8.39344 6.3776ZM8.32682 6.304L9.32648 5.7025C9.38257 5.79572 9.41603 5.89007 9.43335 5.97805L8.28868 6.20349L7.144 6.42893C7.17566 6.58969 7.23506 6.75243 7.32717 6.9055L8.32682 6.304ZM8.28868 6.20349L9.43335 5.97805C9.45074 6.06633 9.45341 6.15561 9.44199 6.24319L8.28513 6.09225L7.12826 5.94132C7.10719 6.10289 7.11227 6.26785 7.144 6.42893L8.28868 6.20349ZM8.28513 6.09225L9.44199 6.24319C9.43058 6.3306 9.40415 6.42347 9.35726 6.51593L8.31676 5.98824L7.27625 5.46054C7.19727 5.61627 7.14932 5.77991 7.12826 5.94132L8.28513 6.09225ZM8.31676 5.98824L9.35726 6.51593C9.31043 6.60828 9.23986 6.70636 9.1382 6.79359L8.37846 5.90821L7.61872 5.02282C7.46772 5.1524 7.35518 5.30492 7.27625 5.46054L8.31676 5.98824ZM8.37846 5.90821L9.1382 6.79359C9.0356 6.88164 8.90224 6.95734 8.74202 6.99721L8.46031 5.86506L8.1786 4.73292C7.95973 4.78738 7.77067 4.89244 7.61872 5.02282L8.37846 5.90821ZM8.46031 5.86506L8.74202 6.99721C8.58033 7.03744 8.4108 7.03605 8.25015 6.99347L8.54908 5.86575L8.84802 4.73803C8.62887 4.67994 8.39894 4.67809 8.1786 4.73292L8.46031 5.86506ZM8.54908 5.86575L8.25015 6.99347C8.09115 6.95132 7.95971 6.87408 7.85917 6.78549L8.63049 5.91017L9.40181 5.03486C9.25234 4.90315 9.06552 4.79569 8.84802 4.73803L8.54908 5.86575ZM8.63049 5.91017L7.82707 6.75612C8.00821 6.92815 8.24902 7.06437 8.53448 7.11477L8.73731 5.96587L8.94015 4.81697C9.14799 4.85367 9.31526 4.95153 9.43391 5.06422L8.63049 5.91017ZM8.73731 5.96587L8.53448 7.11477C8.82267 7.16565 9.11054 7.12048 9.36063 6.9994L8.85226 5.94933L8.34388 4.89925C8.52085 4.81357 8.72958 4.7798 8.94015 4.81697L8.73731 5.96587ZM8.85226 5.94933L9.35316 7.00299C9.66829 6.85318 9.87107 6.61626 9.97574 6.47973C10.096 6.32286 10.1924 6.15601 10.2657 6.01524C10.4129 5.73213 10.5255 5.43843 10.5875 5.26575L9.4895 4.87145L8.39149 4.47716C8.34389 4.6097 8.27233 4.79102 8.19558 4.93858C8.1568 5.01314 8.13129 5.05054 8.12399 5.06006C8.12128 5.0636 8.13313 5.04729 8.16133 5.02127C8.18773 4.99692 8.25034 4.94369 8.35135 4.89566L8.85226 5.94933ZM9.4895 4.87145L10.5876 5.26541C10.6768 5.017 10.754 4.76548 10.8215 4.5162L9.69533 4.21146L8.56917 3.90673C8.51555 4.1049 8.45646 4.29604 8.39136 4.4775L9.4895 4.87145ZM9.69533 4.21146L10.8216 4.51572C10.8472 4.42102 10.8818 4.29373 10.9108 4.16258L9.7718 3.91024L8.63275 3.65789C8.6172 3.72809 8.59699 3.80375 8.56904 3.90721L9.69533 4.21146ZM9.7718 3.91024L10.9186 4.12476C10.9022 4.21248 10.8699 4.30627 10.8156 4.39903L9.80885 3.80945L8.80212 3.21987C8.71251 3.37287 8.65505 3.53523 8.62503 3.69571L9.7718 3.91024ZM9.80885 3.80945L10.8156 4.39903C10.7613 4.49174 10.6815 4.58884 10.5697 4.67182L9.87445 3.73495L9.17919 2.79809C9.01607 2.91914 8.89169 3.06692 8.80212 3.21987L9.80885 3.80945ZM9.87445 3.73495L10.5697 4.67182C10.4568 4.75565 10.3142 4.82224 10.1489 4.84964L9.9581 3.69868L9.76734 2.54772C9.54291 2.58491 9.34344 2.67619 9.17919 2.79809L9.87445 3.73495ZM9.9581 3.69868L10.1489 4.84964C9.98237 4.87724 9.81468 4.86128 9.66184 4.80792L10.0464 3.70645L10.4309 2.60498C10.2207 2.53158 9.99293 2.51032 9.76734 2.54772L9.9581 3.69868ZM10.0464 3.70645L9.66184 4.80792C9.51076 4.75517 9.38962 4.6716 9.29911 4.58085L10.1252 3.75701L10.9513 2.93317C10.8142 2.79574 10.6395 2.67778 10.4309 2.60498L10.0464 3.70645ZM10.1252 3.75701L9.29911 4.58085C9.20934 4.49084 9.14869 4.39322 9.10958 4.30199L10.1819 3.84227L11.2541 3.38255C11.1868 3.22549 11.0876 3.06986 10.9513 2.93317L10.1252 3.75701ZM10.1819 3.84227L9.10958 4.30199C9.07041 4.21063 9.04993 4.11926 9.04367 4.03255L10.2073 3.94856L11.371 3.86457C11.3593 3.70343 11.3215 3.53975 11.2541 3.38255L10.1819 3.84227ZM10.2073 3.94856L9.04367 4.03255C9.0374 3.94561 9.04488 3.85629 9.06777 3.76752L10.1975 4.05885L11.3272 4.35018C11.3684 4.19029 11.3826 4.02595 11.371 3.86457L10.2073 3.94856ZM10.1975 4.05885L9.06084 3.79588C8.98883 4.10712 8.89978 4.41055 8.79462 4.70394L9.89288 5.09757L10.9911 5.49121C11.1275 5.1108 11.242 4.72004 11.3341 4.32182L10.1975 4.05885ZM9.89288 5.09757L8.76868 4.78568C8.66832 5.14741 8.48486 5.39875 8.30469 5.53559L9.01029 6.46469L9.7159 7.39379C10.36 6.90463 10.8008 6.18899 11.0171 5.40947L9.89288 5.09757ZM9.01029 6.46469L8.47903 5.426C8.5574 5.38592 8.65345 5.35915 8.75952 5.35802L8.77196 6.52462L8.7844 7.69122C9.05398 7.68835 9.31179 7.6209 9.54156 7.50338L9.01029 6.46469Z" fill="white" mask="url(#path-25-inside-9_4876_6847)"/>
<mask id="path-27-inside-10_4876_6847" fill="white">
<path fill-rule="evenodd" clip-rule="evenodd" d="M19.2237 6.52366C19.1422 6.52323 19.0615 6.50428 18.9854 6.46773C18.572 6.15586 18.2594 5.67162 18.1022 5.09981C17.9816 4.76281 17.8798 4.41574 17.7975 4.06109C17.7815 3.99053 17.7884 3.91485 17.8169 3.85072C17.8453 3.78659 17.8929 3.73924 17.9492 3.71911C18.0055 3.69898 18.0658 3.70771 18.117 3.74337C18.1681 3.77903 18.2059 3.83871 18.222 3.90928C18.3005 4.23876 18.3957 4.56167 18.5068 4.87609C18.6164 5.18051 18.8751 5.82212 19.144 5.94997C19.1806 5.96744 19.2202 5.97302 19.259 5.96617C19.2977 5.95932 19.3345 5.94028 19.3658 5.91081C19.4153 5.87455 19.474 5.86377 19.5297 5.88075C19.5854 5.89773 19.6336 5.94115 19.6642 6.00185C19.6949 6.06255 19.7056 6.13579 19.694 6.20615C19.6824 6.27651 19.6495 6.33849 19.6022 6.37904C19.4895 6.47043 19.3585 6.52001 19.2243 6.52206"/>
</mask>
<path fill-rule="evenodd" clip-rule="evenodd" d="M19.2237 6.52366C19.1422 6.52323 19.0615 6.50428 18.9854 6.46773C18.572 6.15586 18.2594 5.67162 18.1022 5.09981C17.9816 4.76281 17.8798 4.41574 17.7975 4.06109C17.7815 3.99053 17.7884 3.91485 17.8169 3.85072C17.8453 3.78659 17.8929 3.73924 17.9492 3.71911C18.0055 3.69898 18.0658 3.70771 18.117 3.74337C18.1681 3.77903 18.2059 3.83871 18.222 3.90928C18.3005 4.23876 18.3957 4.56167 18.5068 4.87609C18.6164 5.18051 18.8751 5.82212 19.144 5.94997C19.1806 5.96744 19.2202 5.97302 19.259 5.96617C19.2977 5.95932 19.3345 5.94028 19.3658 5.91081C19.4153 5.87455 19.474 5.86377 19.5297 5.88075C19.5854 5.89773 19.6336 5.94115 19.6642 6.00185C19.6949 6.06255 19.7056 6.13579 19.694 6.20615C19.6824 6.27651 19.6495 6.33849 19.6022 6.37904C19.4895 6.47043 19.3585 6.52001 19.2243 6.52206" fill="white"/>
<path d="M18.9854 6.46773L18.2827 7.39903L18.3755 7.46905L18.4802 7.51938L18.9854 6.46773ZM18.1022 5.09981L19.2271 4.79047L19.2154 4.74815L19.2006 4.70683L18.1022 5.09981ZM17.7975 4.06109L16.6599 4.31993L16.661 4.32472L17.7975 4.06109ZM18.222 3.90928L17.0843 4.16812L17.0871 4.17999L18.222 3.90928ZM18.5068 4.87609L17.4068 5.26482L17.4091 5.2713L18.5068 4.87609ZM19.144 5.94997L19.6468 4.89718L19.6449 4.8963L19.144 5.94997ZM19.3658 5.91081L18.676 4.96994L18.6184 5.01215L18.5664 5.06105L19.3658 5.91081ZM19.6022 6.37904L20.3371 7.28518L20.3494 7.27516L20.3615 7.26481L19.6022 6.37904ZM19.2237 6.52366L19.2299 5.35701C19.3275 5.35753 19.4166 5.38061 19.4905 5.41608L18.9854 6.46773L18.4802 7.51938C18.7063 7.62795 18.9569 7.68893 19.2175 7.69031L19.2237 6.52366ZM18.9854 6.46773L19.6881 5.53643C19.5095 5.40167 19.3264 5.15183 19.2271 4.79047L18.1022 5.09981L16.9772 5.40915C17.1924 6.19142 17.6346 6.91006 18.2827 7.39903L18.9854 6.46773ZM18.1022 5.09981L19.2006 4.70683C19.0955 4.41287 19.0063 4.10902 18.934 3.79747L17.7975 4.06109L16.661 4.32472C16.7533 4.72247 16.8677 5.11276 17.0037 5.49279L18.1022 5.09981ZM17.7975 4.06109L18.9351 3.80226C18.9729 3.96845 18.9603 4.15012 18.8834 4.3237L17.8169 3.85072L16.7504 3.37774C16.6165 3.67959 16.59 4.01261 16.6599 4.31992L17.7975 4.06109ZM17.8169 3.85072L18.8834 4.3237C18.8068 4.49635 18.6389 4.71146 18.3421 4.81762L17.9492 3.71911L17.5562 2.62061C17.1469 2.76703 16.8838 3.07682 16.7504 3.37774L17.8169 3.85072ZM17.9492 3.71911L18.3421 4.81762C18.0252 4.93099 17.6925 4.86963 17.4497 4.70038L18.117 3.74337L18.7842 2.78636C18.4392 2.54578 17.9858 2.46697 17.5562 2.62061L17.9492 3.71911ZM18.117 3.74337L17.4497 4.70038C17.2249 4.54365 17.1217 4.33238 17.0844 4.16811L18.222 3.90928L19.3595 3.65045C19.2901 3.34504 19.1113 3.01442 18.7842 2.78636L18.117 3.74337ZM18.222 3.90928L17.0871 4.17999C17.1751 4.54871 17.2818 4.91105 17.4068 5.26482L18.5068 4.87609L19.6068 4.48736C19.5096 4.21229 19.426 3.9288 19.3568 3.63856L18.222 3.90928ZM18.5068 4.87609L17.4091 5.2713C17.4713 5.44413 17.5841 5.73699 17.7315 6.01935C17.8049 6.15977 17.9014 6.32613 18.0218 6.48256C18.1268 6.619 18.3293 6.85443 18.6431 7.00363L19.144 5.94997L19.6449 4.8963C19.7452 4.94395 19.8074 4.99668 19.8337 5.0209C19.8618 5.04675 19.8736 5.06297 19.871 5.05954C19.8638 5.0502 19.8384 5.01316 19.7998 4.93914C19.7233 4.79262 19.6518 4.61246 19.6045 4.48087L18.5068 4.87609ZM19.144 5.94997L18.6413 7.00275C18.8904 7.12172 19.1761 7.1655 19.4618 7.11507L19.259 5.96617L19.0561 4.81727C19.2642 4.78053 19.4708 4.81317 19.6468 4.89718L19.144 5.94997ZM19.259 5.96617L19.4618 7.11507C19.7451 7.06506 19.9844 6.93061 20.1652 6.76058L19.3658 5.91081L18.5664 5.06105C18.6845 4.94995 18.8504 4.85359 19.0561 4.81727L19.259 5.96617ZM19.3658 5.91081L20.0556 6.85168C19.8271 7.01927 19.5069 7.09353 19.1893 6.99666L19.5297 5.88075L19.8701 4.76484C19.4411 4.63401 19.0035 4.72983 18.676 4.96994L19.3658 5.91081ZM19.5297 5.88075L19.1893 6.99666C18.8889 6.90501 18.7092 6.69884 18.6228 6.5277L19.6642 6.00185L20.7057 5.476C20.558 5.18346 20.2819 4.89045 19.8701 4.76484L19.5297 5.88075ZM19.6642 6.00185L18.6228 6.5277C18.5364 6.35664 18.5163 6.178 18.5428 6.01683L19.694 6.20615L20.8452 6.39547C20.8948 6.09358 20.8533 5.76845 20.7057 5.476L19.6642 6.00185ZM19.694 6.20615L18.5428 6.01683C18.569 5.85741 18.652 5.65695 18.8429 5.49327L19.6022 6.37904L20.3615 7.26481C20.647 7.02004 20.7958 6.69562 20.8452 6.39547L19.694 6.20615ZM19.6022 6.37904L18.8673 5.4729C18.9401 5.41388 19.0575 5.35781 19.2065 5.35553L19.2243 6.52206L19.2422 7.68859C19.6596 7.68221 20.0389 7.52698 20.3371 7.28518L19.6022 6.37904Z" fill="white" mask="url(#path-27-inside-10_4876_6847)"/>
</g>
</svg>
