<svg width="24" height="24" viewBox="0 0 24 24" fill="none" xmlns="http://www.w3.org/2000/svg">
<path fill-rule="evenodd" clip-rule="evenodd" d="M7.47792 0.695801C3.73199 0.695801 0.695312 3.73248 0.695312 7.47841V16.5219C0.695312 20.2678 3.73199 23.3045 7.47792 23.3045H16.5214C20.2674 23.3045 23.304 20.2678 23.304 16.5219V7.47841C23.304 3.73248 20.2674 0.695801 16.5214 0.695801H7.47792ZM6.7243 12.0001C6.7243 9.08664 9.08615 6.72479 11.9997 6.72479C14.9132 6.72479 17.275 9.08664 17.275 12.0001C17.275 14.9137 14.9132 17.2755 11.9997 17.2755C9.08615 17.2755 6.7243 14.9137 6.7243 12.0001ZM17.275 6.72479H18.7823V5.21754H17.275V6.72479Z" fill="#BC264A"/>
</svg>
