<svg width="23" height="23" viewBox="0 0 23 23" fill="none" xmlns="http://www.w3.org/2000/svg">
<path fill-rule="evenodd" clip-rule="evenodd" d="M18.2557 16.2296C17.9833 17.0008 16.9003 17.6387 16.0367 17.8253C15.4454 17.9508 14.6745 18.0501 12.0767 16.9736C9.15909 15.7648 5.10762 11.459 5.10762 8.59362C5.10762 7.13492 5.94866 5.43635 7.41935 5.43635C8.12701 5.43635 8.28301 5.45015 8.51588 6.00875C8.78831 6.66686 9.45301 8.28831 9.53214 8.45453C9.85884 9.13638 9.19978 9.53554 8.72161 10.1292C8.569 10.3079 8.39606 10.5011 8.58936 10.8335C8.78153 11.1592 9.44622 12.2425 10.4229 13.112C11.6845 14.236 12.7075 14.5949 13.0738 14.7475C13.3462 14.8606 13.6718 14.8343 13.8707 14.6217C14.1228 14.3492 14.436 13.897 14.7547 13.4515C14.9797 13.1326 15.2657 13.0928 15.5653 13.2059C15.7676 13.276 18.3394 14.4703 18.4479 14.6614C18.5281 14.8005 18.5282 15.4584 18.2557 16.2296ZM11.6777 0.266602H11.672C5.43996 0.266602 0.371094 5.337 0.371094 11.5709C0.371094 14.0428 1.16806 16.3361 2.52345 18.1962L1.11493 22.3967L5.45919 21.0085C7.24641 22.1913 9.37953 22.8753 11.6777 22.8753C17.9098 22.8753 22.9798 17.8049 22.9798 11.5709C22.9798 5.337 17.9098 0.266602 11.6777 0.266602Z" fill="#BC264A"/>
</svg>
