<svg width="24" height="25" viewBox="0 0 24 25" fill="none" xmlns="http://www.w3.org/2000/svg">
<path fill-rule="evenodd" clip-rule="evenodd" d="M10.1599 18.4417C8.5578 18.4154 6.99917 17.9163 5.67984 17.007C4.36051 16.0978 3.33932 14.8188 2.74454 13.331C2.14977 11.8431 2.00795 10.2127 2.33689 8.64452C2.66584 7.07633 3.45089 5.64032 4.59341 4.51689C5.73593 3.39347 7.18496 2.63274 8.75848 2.33026C10.332 2.02779 11.9598 2.19709 13.4374 2.81686C14.915 3.43662 16.1765 4.4792 17.0634 5.81367C17.9504 7.14814 18.4232 8.71495 18.4224 10.3173C18.4136 11.3933 18.1928 12.4571 17.7728 13.4478C17.3527 14.4386 16.7416 15.3368 15.9743 16.0913C15.207 16.8457 14.2986 17.4416 13.3009 17.8449C12.3033 18.2482 11.236 18.451 10.1599 18.4417ZM23.3822 22.6493L17.3908 16.7517C19.0163 15.003 19.9209 12.7047 19.9233 10.3173C19.9553 8.37931 19.4098 6.47571 18.3564 4.84876C17.3029 3.22182 15.7892 1.94515 14.0078 1.18134C12.2264 0.417525 10.258 0.20111 8.35327 0.559639C6.4485 0.918167 4.6935 1.83543 3.31173 3.19463C1.92997 4.55383 0.983943 6.29349 0.594099 8.1921C0.204255 10.0907 0.388232 12.0624 1.12261 13.8561C1.85698 15.6498 3.10854 17.1843 4.71792 18.2644C6.32729 19.3445 8.22169 19.9213 10.1599 19.9212C12.3932 19.9262 14.5614 19.1688 16.3058 17.7742L22.321 23.6925C22.4625 23.832 22.6533 23.9102 22.852 23.9102C23.0507 23.9102 23.2415 23.832 23.383 23.6925C23.4528 23.6245 23.5082 23.5433 23.5461 23.4536C23.584 23.3638 23.6035 23.2675 23.6035 23.1701C23.6035 23.0727 23.584 22.9763 23.5461 22.8866C23.5082 22.7969 23.4528 22.7157 23.383 22.6477L23.3822 22.6493Z" fill="black" stroke="black" stroke-width="0.410987"/>
</svg>
