<svg width="22" height="22" viewBox="0 0 22 22" fill="none" xmlns="http://www.w3.org/2000/svg">
<path d="M7.33301 8.06728C7.33301 7.34204 7.54807 6.63308 7.95099 6.03007C8.35391 5.42705 8.9266 4.95706 9.59664 4.67952C10.2667 4.40198 11.004 4.32936 11.7153 4.47085C12.4266 4.61234 13.08 4.96158 13.5928 5.4744C14.1056 5.98722 14.4548 6.6406 14.5963 7.35191C14.7378 8.06321 14.6652 8.8005 14.3877 9.47054C14.1101 10.1406 13.6401 10.7133 13.0371 11.1162C12.4341 11.5191 11.7251 11.7342 10.9999 11.7342C10.0274 11.7342 9.09469 11.3478 8.40701 10.6602C7.71934 9.97249 7.33301 9.0398 7.33301 8.06728Z" fill="black"/>
<path fill-rule="evenodd" clip-rule="evenodd" d="M11 0C8.82441 0 6.69767 0.645139 4.88873 1.85383C3.07979 3.06253 1.66989 4.78049 0.83733 6.79048C0.00476615 8.80047 -0.213071 11.0122 0.211367 13.146C0.635804 15.2798 1.68345 17.2398 3.22183 18.7782C4.76021 20.3165 6.72022 21.3642 8.85401 21.7886C10.9878 22.2131 13.1995 21.9952 15.2095 21.1627C17.2195 20.3301 18.9375 18.9202 20.1462 17.1113C21.3549 15.3023 22 13.1756 22 11C22 8.08262 20.8411 5.28472 18.7782 3.22182C16.7153 1.15892 13.9174 0 11 0ZM1.46676 11C1.46684 9.42285 1.85821 7.87037 2.6058 6.48166C3.35338 5.09295 4.43382 3.91141 5.75029 3.04292C7.06677 2.17443 8.57815 1.64611 10.149 1.50533C11.7198 1.36454 13.3011 1.61568 14.751 2.23623C16.2009 2.85678 17.4743 3.82737 18.4569 5.06101C19.4395 6.29465 20.1007 7.7528 20.3812 9.30479C20.6618 10.8568 20.5529 12.4541 20.0643 13.9537C19.5757 15.4533 18.7228 16.8082 17.5818 17.8971C17.4724 16.6158 16.8862 15.4222 15.939 14.5525C14.9918 13.6827 13.7527 13.2001 12.4668 13.2001H9.53325C8.24732 13.2001 7.00821 13.6827 6.06103 14.5525C5.11385 15.4222 4.52758 16.6158 4.41819 17.8971C3.48412 17.0078 2.74077 15.9377 2.23337 14.752C1.72598 13.5663 1.46515 12.2897 1.46676 11Z" fill="black"/>
</svg>
