<svg width="109" height="70" viewBox="0 0 109 70" fill="none" xmlns="http://www.w3.org/2000/svg">
<path d="M26.2193 35.0359L53.0287 77.83C53.2453 78.1759 52.7831 78.5421 52.496 78.2521L30.6729 56.2091C30.4939 56.0283 30.187 56.0995 30.1059 56.3408L26.0175 68.5106C25.9261 68.7824 25.5609 68.8278 25.4058 68.5867L1.56282 31.5168C1.35365 31.1916 1.76035 30.8236 2.06306 31.0642L22.1653 47.0389C22.3603 47.1939 22.6503 47.095 22.7099 46.8531L25.5977 35.1356C25.6699 34.8424 26.059 34.78 26.2193 35.0359Z" fill="#FBCF6D"/>
<path d="M91.5054 23.6168L68.9983 79.3775C68.8402 79.7693 68.3 79.6094 68.3739 79.1925L75.0825 41.371C75.1258 41.1269 74.9308 40.9201 74.7044 40.9703L60.9776 44.0094C60.721 44.0662 60.5179 43.7973 60.6199 43.5358L79.6873 -5.32487C79.8331 -5.69856 80.3456 -5.58499 80.3183 -5.18504L78.1267 26.8854C78.11 27.1286 78.3207 27.3082 78.5394 27.2371L91.1198 23.1472C91.3866 23.0605 91.6168 23.3409 91.5054 23.6168Z" fill="#FBCF6D"/>
<path d="M58.217 15.7582L59.6406 78.1293C59.6505 78.5621 59.0731 78.615 58.9917 78.1888L50.9387 36.0276C50.8898 35.7715 50.6133 35.6491 50.4211 35.7984L40.7363 43.3261C40.5233 43.4916 40.2192 43.3223 40.2118 43.0342L38.927 -7.31824C38.9166 -7.72839 39.4496 -7.81033 39.5668 -7.41658L48.6801 23.2151C48.7534 23.4614 49.034 23.5527 49.2106 23.3877L57.6706 15.4841C57.879 15.2893 58.2101 15.4554 58.217 15.7582Z" fill="#ED1559"/>
<path d="M117.614 36.2642L81.9766 76.5818C81.6969 76.8982 81.2183 76.5442 81.4379 76.1833L101.043 43.9654C101.167 43.7609 101.058 43.4993 100.829 43.4542L90.2754 41.3762C90.0208 41.326 89.9228 41.0148 90.0987 40.8147L118.809 8.14162C119.074 7.84059 119.538 8.14477 119.366 8.50668L107.162 34.2409C107.06 34.4556 107.194 34.7016 107.425 34.7242L117.406 35.6973C117.68 35.724 117.801 36.0531 117.614 36.2642Z" fill="#ED1559"/>
</svg>
