<svg width="24" height="20" viewBox="0 0 24 20" fill="none" xmlns="http://www.w3.org/2000/svg">
<path fill-rule="evenodd" clip-rule="evenodd" d="M23.304 2.71544C22.4611 3.10725 21.5625 3.36591 20.6403 3.4822C21.621 2.85835 22.3449 1.90289 22.6801 0.789956C21.7748 1.35481 20.7767 1.75484 19.7319 1.97153C19.3089 1.49088 18.7889 1.10538 18.206 0.840447C17.6232 0.575516 16.9908 0.437182 16.3506 0.43457C15.0894 0.463931 13.8915 0.993031 13.0204 1.9055C12.1493 2.81797 11.6763 4.03908 11.7054 5.30027C11.7039 5.67276 11.7422 6.04435 11.8197 6.4087C9.95465 6.29915 8.13523 5.78832 6.48573 4.91111C4.83623 4.0339 3.3955 2.81098 2.26198 1.32589C1.84876 2.0746 1.63287 2.91614 1.63463 3.77131C1.67608 4.58054 1.90734 5.36867 2.30972 6.07199C2.71211 6.77532 3.27432 7.37411 3.95092 7.81996C3.18987 7.79368 2.10086 7.57428 2.10086 7.20861V7.27374C2.0314 8.34856 2.34012 9.41382 2.97353 10.2849C3.60694 11.1561 4.52513 11.7782 5.56901 12.0435C5.12866 12.1554 4.6761 12.2122 4.22174 12.2126C3.90729 12.2125 3.59355 12.1826 3.28471 12.1234C3.55215 13.0698 4.11283 13.907 4.88611 14.5145C5.65939 15.1221 6.60543 15.4688 7.58819 15.5047C5.96162 16.8467 3.91932 17.5819 1.81061 17.5845C1.43785 17.5847 1.06542 17.5626 0.695312 17.5182C2.79389 18.9394 5.26964 19.7003 7.80417 19.7031C16.3414 19.7031 21.0049 12.2926 21.0049 5.86477C21.0049 5.65337 21.0049 5.44082 20.9889 5.23285C21.9039 4.53914 22.6879 3.68782 23.304 2.71887" fill="#BC264A"/>
</svg>
