<svg width="150" height="148" viewBox="0 0 150 148" fill="none" xmlns="http://www.w3.org/2000/svg">
<g clip-path="url(#clip0_162_39147)">
<path d="M160.624 6.39757H141.553L107.316 40.7644L104.449 43.5702L66.2308 6.4327H11.5585V47.8314H100.275L86.7172 61.4369L54.7535 93.5163L34.6612 113.681L33.357 114.9L6.66598 141.688C2.5298 145.713 0.133354 151.207 -0.00878906 156.988V184.914H21.4717C22.1012 184.972 22.7426 185.001 23.3939 185.001H181.99V142.991H77.9922L78.1402 142.839H78.0362L123.227 97.4894L143.654 76.9976L144.958 75.7786L175.291 45.3382C179.429 41.3137 181.826 35.8194 181.968 30.0385V6.379H160.632L160.624 6.39757Z" fill="#BC264A"/>
<path d="M104.786 33.049L137.688 0.00357056H70.7764L103.68 33.049L103.91 33.2688L104.222 33.5855L104.536 33.2688L104.768 33.049H104.786Z" fill="#ED145A"/>
</g>
<defs>
<clipPath id="clip0_162_39147">
<rect width="182" height="185" fill="white"/>
</clipPath>
</defs>
</svg>
